%TF.GenerationSoftware,KiCad,Pcbnew,8.0.8*%
%TF.CreationDate,2025-07-12T18:43:26-05:00*%
%TF.ProjectId,nanosplit,6e616e6f-7370-46c6-9974-2e6b69636164,rev?*%
%TF.SameCoordinates,Original*%
%TF.FileFunction,Paste,Top*%
%TF.FilePolarity,Positive*%
%FSLAX46Y46*%
G04 Gerber Fmt 4.6, Leading zero omitted, Abs format (unit mm)*
G04 Created by KiCad (PCBNEW 8.0.8) date 2025-07-12 18:43:26*
%MOMM*%
%LPD*%
G01*
G04 APERTURE LIST*
G04 Aperture macros list*
%AMRoundRect*
0 Rectangle with rounded corners*
0 $1 Rounding radius*
0 $2 $3 $4 $5 $6 $7 $8 $9 X,Y pos of 4 corners*
0 Add a 4 corners polygon primitive as box body*
4,1,4,$2,$3,$4,$5,$6,$7,$8,$9,$2,$3,0*
0 Add four circle primitives for the rounded corners*
1,1,$1+$1,$2,$3*
1,1,$1+$1,$4,$5*
1,1,$1+$1,$6,$7*
1,1,$1+$1,$8,$9*
0 Add four rect primitives between the rounded corners*
20,1,$1+$1,$2,$3,$4,$5,0*
20,1,$1+$1,$4,$5,$6,$7,0*
20,1,$1+$1,$6,$7,$8,$9,0*
20,1,$1+$1,$8,$9,$2,$3,0*%
G04 Aperture macros list end*
%ADD10RoundRect,0.140000X-0.170000X0.140000X-0.170000X-0.140000X0.170000X-0.140000X0.170000X0.140000X0*%
%ADD11RoundRect,0.140000X-0.140000X-0.170000X0.140000X-0.170000X0.140000X0.170000X-0.140000X0.170000X0*%
%ADD12RoundRect,0.135000X0.185000X-0.135000X0.185000X0.135000X-0.185000X0.135000X-0.185000X-0.135000X0*%
%ADD13RoundRect,0.140000X0.140000X0.170000X-0.140000X0.170000X-0.140000X-0.170000X0.140000X-0.170000X0*%
%ADD14R,1.400000X1.600000*%
%ADD15RoundRect,0.150000X-0.650000X-0.150000X0.650000X-0.150000X0.650000X0.150000X-0.650000X0.150000X0*%
%ADD16RoundRect,0.140000X0.170000X-0.140000X0.170000X0.140000X-0.170000X0.140000X-0.170000X-0.140000X0*%
%ADD17RoundRect,0.250000X-0.292217X-0.292217X0.292217X-0.292217X0.292217X0.292217X-0.292217X0.292217X0*%
%ADD18RoundRect,0.050000X-0.387500X-0.050000X0.387500X-0.050000X0.387500X0.050000X-0.387500X0.050000X0*%
%ADD19RoundRect,0.050000X-0.050000X-0.387500X0.050000X-0.387500X0.050000X0.387500X-0.050000X0.387500X0*%
%ADD20RoundRect,0.135000X0.135000X0.185000X-0.135000X0.185000X-0.135000X-0.185000X0.135000X-0.185000X0*%
%ADD21R,0.600000X1.450000*%
%ADD22R,0.300000X1.450000*%
%ADD23RoundRect,0.135000X-0.185000X0.135000X-0.185000X-0.135000X0.185000X-0.135000X0.185000X0.135000X0*%
%ADD24R,1.200000X1.400000*%
%ADD25RoundRect,0.135000X-0.135000X-0.185000X0.135000X-0.185000X0.135000X0.185000X-0.135000X0.185000X0*%
%ADD26RoundRect,0.150000X0.512500X0.150000X-0.512500X0.150000X-0.512500X-0.150000X0.512500X-0.150000X0*%
G04 APERTURE END LIST*
D10*
%TO.C,C3*%
X198970000Y-106560000D03*
X198970000Y-107520000D03*
%TD*%
D11*
%TO.C,C5*%
X193390000Y-84640000D03*
X194350000Y-84640000D03*
%TD*%
D12*
%TO.C,R5*%
X197270000Y-104450000D03*
X197270000Y-103430000D03*
%TD*%
D13*
%TO.C,C11*%
X193025000Y-94002500D03*
X192065000Y-94002500D03*
%TD*%
D11*
%TO.C,C16*%
X202690000Y-93240000D03*
X203650000Y-93240000D03*
%TD*%
D14*
%TO.C,SW19*%
X181270000Y-102740000D03*
X181270000Y-110740000D03*
X176770000Y-102740000D03*
X176770000Y-110740000D03*
%TD*%
D11*
%TO.C,C2*%
X195310000Y-104340000D03*
X196270000Y-104340000D03*
%TD*%
D15*
%TO.C,U2*%
X186570000Y-86230000D03*
X186570000Y-87500000D03*
X186570000Y-88770000D03*
X186570000Y-90040000D03*
X193770000Y-90040000D03*
X193770000Y-88770000D03*
X193770000Y-87500000D03*
X193770000Y-86230000D03*
%TD*%
D16*
%TO.C,C4*%
X206870000Y-93320000D03*
X206870000Y-92360000D03*
%TD*%
D17*
%TO.C,U3*%
X197232500Y-96640000D03*
X197232500Y-97915000D03*
X198507500Y-96640000D03*
X198507500Y-97915000D03*
D18*
X194432500Y-94677500D03*
X194432500Y-95077500D03*
X194432500Y-95477500D03*
X194432500Y-95877500D03*
X194432500Y-96277500D03*
X194432500Y-96677500D03*
X194432500Y-97077500D03*
X194432500Y-97477500D03*
X194432500Y-97877500D03*
X194432500Y-98277500D03*
X194432500Y-98677500D03*
X194432500Y-99077500D03*
X194432500Y-99477500D03*
X194432500Y-99877500D03*
D19*
X195270000Y-100715000D03*
X195670000Y-100715000D03*
X196070000Y-100715000D03*
X196470000Y-100715000D03*
X196870000Y-100715000D03*
X197270000Y-100715000D03*
X197670000Y-100715000D03*
X198070000Y-100715000D03*
X198470000Y-100715000D03*
X198870000Y-100715000D03*
X199270000Y-100715000D03*
X199670000Y-100715000D03*
X200070000Y-100715000D03*
X200470000Y-100715000D03*
D18*
X201307500Y-99877500D03*
X201307500Y-99477500D03*
X201307500Y-99077500D03*
X201307500Y-98677500D03*
X201307500Y-98277500D03*
X201307500Y-97877500D03*
X201307500Y-97477500D03*
X201307500Y-97077500D03*
X201307500Y-96677500D03*
X201307500Y-96277500D03*
X201307500Y-95877500D03*
X201307500Y-95477500D03*
X201307500Y-95077500D03*
X201307500Y-94677500D03*
D19*
X200470000Y-93840000D03*
X200070000Y-93840000D03*
X199670000Y-93840000D03*
X199270000Y-93840000D03*
X198870000Y-93840000D03*
X198470000Y-93840000D03*
X198070000Y-93840000D03*
X197670000Y-93840000D03*
X197270000Y-93840000D03*
X196870000Y-93840000D03*
X196470000Y-93840000D03*
X196070000Y-93840000D03*
X195670000Y-93840000D03*
X195270000Y-93840000D03*
%TD*%
D20*
%TO.C,R6*%
X212800000Y-86637500D03*
X211780000Y-86637500D03*
%TD*%
D16*
%TO.C,C10*%
X202070000Y-92000000D03*
X202070000Y-91040000D03*
%TD*%
%TO.C,C9*%
X197670000Y-91020000D03*
X197670000Y-90060000D03*
%TD*%
D21*
%TO.C,USB1*%
X218250000Y-84782500D03*
X217450000Y-84782500D03*
D22*
X216750000Y-84782500D03*
X216250000Y-84782500D03*
X215750000Y-84782500D03*
X215250000Y-84782500D03*
X214750000Y-84782500D03*
X214250000Y-84782500D03*
X213750000Y-84782500D03*
X213250000Y-84782500D03*
D21*
X212550000Y-84782500D03*
X211750000Y-84782500D03*
%TD*%
D14*
%TO.C,SW20*%
X183970000Y-110740000D03*
X183970000Y-102740000D03*
X188470000Y-110740000D03*
X188470000Y-102740000D03*
%TD*%
D23*
%TO.C,R4*%
X199870000Y-90030000D03*
X199870000Y-91050000D03*
%TD*%
D16*
%TO.C,C6*%
X196570000Y-90420000D03*
X196570000Y-89460000D03*
%TD*%
D24*
%TO.C,Y1*%
X195720000Y-105940000D03*
X195720000Y-108140000D03*
X197420000Y-108140000D03*
X197420000Y-105940000D03*
%TD*%
D13*
%TO.C,C13*%
X193025000Y-98302500D03*
X192065000Y-98302500D03*
%TD*%
D23*
%TO.C,R1*%
X187545000Y-93092500D03*
X187545000Y-94112500D03*
%TD*%
%TO.C,R3*%
X198770000Y-90030000D03*
X198770000Y-91050000D03*
%TD*%
D16*
%TO.C,C1*%
X212070000Y-93320000D03*
X212070000Y-92360000D03*
%TD*%
D10*
%TO.C,C7*%
X199470000Y-102660000D03*
X199470000Y-103620000D03*
%TD*%
%TO.C,C14*%
X198370000Y-102660000D03*
X198370000Y-103620000D03*
%TD*%
D25*
%TO.C,R2*%
X183560000Y-86240000D03*
X184580000Y-86240000D03*
%TD*%
D26*
%TO.C,U1*%
X210607500Y-93290000D03*
X210607500Y-92340000D03*
X210607500Y-91390000D03*
X208332500Y-91390000D03*
X208332500Y-93290000D03*
%TD*%
D23*
%TO.C,R7*%
X216400000Y-86527500D03*
X216400000Y-87547500D03*
%TD*%
D11*
%TO.C,C12*%
X202690000Y-98240000D03*
X203650000Y-98240000D03*
%TD*%
D16*
%TO.C,C8*%
X200970000Y-91020000D03*
X200970000Y-90060000D03*
%TD*%
D11*
%TO.C,C15*%
X202690000Y-94340000D03*
X203650000Y-94340000D03*
%TD*%
M02*
