M48
; DRILL file {KiCad 8.0.8} date 2025-07-12T18:44:11-0500
; FORMAT={-:-/ absolute / inch / decimal}
; #@! TF.CreationDate,2025-07-12T18:44:11-05:00
; #@! TF.GenerationSoftware,Kicad,Pcbnew,8.0.8
; #@! TF.FileFunction,Plated,1,2,PTH
FMAT,2
INCH
; #@! TA.AperFunction,Plated,PTH,ViaDrill
T1C0.0118
; #@! TA.AperFunction,Plated,PTH,ComponentDrill
T2C0.0138
; #@! TA.AperFunction,Plated,PTH,ComponentDrill
T3C0.0236
; #@! TA.AperFunction,Plated,PTH,ComponentDrill
T4C0.0315
; #@! TA.AperFunction,Plated,PTH,ComponentDrill
T5C0.0472
%
G90
G05
T1
X7.1366Y-4.2063
X7.2469Y-4.2063
X7.3453Y-3.7063
X7.3453Y-3.9661
X7.4043Y-3.5449
X7.5264Y-3.7024
X7.5264Y-3.8717
X7.6012Y-4.1551
X7.6012Y-4.2929
X7.6406Y-4.0606
X7.6406Y-4.222
X7.6917Y-3.3323
X7.7311Y-4.037
X7.739Y-3.4858
X7.7744Y-4.3283
X7.7823Y-3.5094
X7.7823Y-3.6236
X7.8138Y-3.9125
X7.8217Y-3.7457
X7.8335Y-4.0094
X7.8335Y-4.1197
X7.8728Y-4.3087
X7.8886Y-4.0803
X7.9004Y-4.1906
X7.9122Y-3.5094
X7.9555Y-3.5488
X8.0539Y-3.6709
X8.0539Y-3.7142
X8.0579Y-3.8677
X8.1445Y-3.6
X8.3886Y-3.6354
X8.5197Y-3.4818
X8.5941Y-3.3952
T2
X7.74Y-3.7796
X7.74Y-3.8298
X7.74Y-3.88
X7.7902Y-3.7796
X7.7902Y-3.8298
X7.7902Y-3.88
X7.8404Y-3.7796
X7.8404Y-3.8298
X7.8404Y-3.88
T4
X4.2465Y-4.2976
X4.3409Y-4.2976
X5.3453Y-4.3492
X5.4398Y-4.3492
X6.2791Y-4.9354
X6.3736Y-4.9354
X6.6693Y-7.0528
X6.7638Y-7.0528
X8.4409Y-4.3819
X8.4409Y-5.4843
X8.4409Y-6.5866
X8.5354Y-4.3819
X8.5354Y-5.4843
X8.5354Y-6.5866
X10.2126Y-7.0528
X10.3071Y-7.0528
X10.4315Y-4.5071
X10.4496Y-5.6098
X10.526Y-4.5071
X10.5441Y-5.6098
X11.3854Y-3.9665
X11.424Y-5.0677
X11.4799Y-3.9665
X11.5185Y-5.0677
X12.4791Y-3.9138
X12.5248Y-5.0154
X12.5736Y-3.9138
X12.6193Y-5.0154
X13.4606Y-4.4197
X13.5307Y-5.5197
X13.5551Y-4.4197
X13.6252Y-5.5197
T5
X4.026Y-4.0457
X4.026Y-4.3843
X4.5142Y-4.0073
X4.5142Y-4.2071
X4.5142Y-4.4069
X5.1248Y-4.0972
X5.1248Y-4.4358
X5.613Y-4.0589
X5.613Y-4.2587
X5.613Y-4.4585
X6.0587Y-4.6835
X6.0587Y-5.022
X6.4488Y-6.8008
X6.4488Y-7.1394
X6.5469Y-4.6451
X6.5469Y-4.8449
X6.5469Y-5.0447
X6.937Y-6.7624
X6.937Y-6.9622
X6.937Y-7.162
X8.2205Y-4.1299
X8.2205Y-4.4685
X8.2205Y-5.2323
X8.2205Y-5.5709
X8.2205Y-6.3346
X8.2205Y-6.6732
X8.7087Y-4.0915
X8.7087Y-4.2913
X8.7087Y-4.4911
X8.7087Y-5.1939
X8.7087Y-5.3937
X8.7087Y-5.5935
X8.7087Y-6.2963
X8.7087Y-6.4961
X8.7087Y-6.6959
X9.9921Y-6.8008
X9.9921Y-7.1394
X10.211Y-4.2551
X10.211Y-4.5937
X10.2291Y-5.3579
X10.2291Y-5.6965
X10.4803Y-6.7624
X10.4803Y-6.9622
X10.4803Y-7.162
X10.6992Y-4.2167
X10.6992Y-4.4165
X10.6992Y-4.6163
X10.7173Y-5.3195
X10.7173Y-5.5193
X10.7173Y-5.7191
X11.165Y-3.7146
X11.165Y-4.0531
X11.2035Y-4.8157
X11.2035Y-5.1543
X11.6531Y-3.6762
X11.6531Y-3.876
X11.6531Y-4.0758
X11.6917Y-4.7774
X11.6917Y-4.9772
X11.6917Y-5.177
X12.2587Y-3.6618
X12.2587Y-4.0004
X12.3043Y-4.7634
X12.3043Y-5.102
X12.7469Y-3.6234
X12.7469Y-3.8232
X12.7469Y-4.023
X12.7925Y-4.725
X12.7925Y-4.9248
X12.7925Y-5.1246
X13.2402Y-4.1677
X13.2402Y-4.5063
X13.3102Y-5.2677
X13.3102Y-5.6063
X13.7283Y-4.1293
X13.7283Y-4.3291
X13.7283Y-4.5289
X13.7984Y-5.2293
X13.7984Y-5.4291
X13.7984Y-5.6289
T3
G00X8.2945Y-3.1491
M15
G01X8.2945Y-3.1255
M16
G05
G00X8.2945Y-3.3235
M15
G01X8.2945Y-3.2802
M16
G05
G00X8.6346Y-3.1491
M15
G01X8.6346Y-3.1255
M16
G05
G00X8.6346Y-3.3235
M15
G01X8.6346Y-3.2802
M16
G05
M30
