%TF.GenerationSoftware,KiCad,Pcbnew,8.0.8*%
%TF.CreationDate,2025-07-12T18:43:26-05:00*%
%TF.ProjectId,nanosplit,6e616e6f-7370-46c6-9974-2e6b69636164,rev?*%
%TF.SameCoordinates,Original*%
%TF.FileFunction,Legend,Top*%
%TF.FilePolarity,Positive*%
%FSLAX46Y46*%
G04 Gerber Fmt 4.6, Leading zero omitted, Abs format (unit mm)*
G04 Created by KiCad (PCBNEW 8.0.8) date 2025-07-12 18:43:26*
%MOMM*%
%LPD*%
G01*
G04 APERTURE LIST*
%ADD10C,0.300000*%
%ADD11C,0.150000*%
%ADD12C,0.120000*%
G04 APERTURE END LIST*
D10*
X177024510Y-112955114D02*
X177238796Y-113026542D01*
X177238796Y-113026542D02*
X177310225Y-113097971D01*
X177310225Y-113097971D02*
X177381653Y-113240828D01*
X177381653Y-113240828D02*
X177381653Y-113455114D01*
X177381653Y-113455114D02*
X177310225Y-113597971D01*
X177310225Y-113597971D02*
X177238796Y-113669400D01*
X177238796Y-113669400D02*
X177095939Y-113740828D01*
X177095939Y-113740828D02*
X176524510Y-113740828D01*
X176524510Y-113740828D02*
X176524510Y-112240828D01*
X176524510Y-112240828D02*
X177024510Y-112240828D01*
X177024510Y-112240828D02*
X177167368Y-112312257D01*
X177167368Y-112312257D02*
X177238796Y-112383685D01*
X177238796Y-112383685D02*
X177310225Y-112526542D01*
X177310225Y-112526542D02*
X177310225Y-112669400D01*
X177310225Y-112669400D02*
X177238796Y-112812257D01*
X177238796Y-112812257D02*
X177167368Y-112883685D01*
X177167368Y-112883685D02*
X177024510Y-112955114D01*
X177024510Y-112955114D02*
X176524510Y-112955114D01*
X178310225Y-112240828D02*
X178595939Y-112240828D01*
X178595939Y-112240828D02*
X178738796Y-112312257D01*
X178738796Y-112312257D02*
X178881653Y-112455114D01*
X178881653Y-112455114D02*
X178953082Y-112740828D01*
X178953082Y-112740828D02*
X178953082Y-113240828D01*
X178953082Y-113240828D02*
X178881653Y-113526542D01*
X178881653Y-113526542D02*
X178738796Y-113669400D01*
X178738796Y-113669400D02*
X178595939Y-113740828D01*
X178595939Y-113740828D02*
X178310225Y-113740828D01*
X178310225Y-113740828D02*
X178167368Y-113669400D01*
X178167368Y-113669400D02*
X178024510Y-113526542D01*
X178024510Y-113526542D02*
X177953082Y-113240828D01*
X177953082Y-113240828D02*
X177953082Y-112740828D01*
X177953082Y-112740828D02*
X178024510Y-112455114D01*
X178024510Y-112455114D02*
X178167368Y-112312257D01*
X178167368Y-112312257D02*
X178310225Y-112240828D01*
X179881654Y-112240828D02*
X180167368Y-112240828D01*
X180167368Y-112240828D02*
X180310225Y-112312257D01*
X180310225Y-112312257D02*
X180453082Y-112455114D01*
X180453082Y-112455114D02*
X180524511Y-112740828D01*
X180524511Y-112740828D02*
X180524511Y-113240828D01*
X180524511Y-113240828D02*
X180453082Y-113526542D01*
X180453082Y-113526542D02*
X180310225Y-113669400D01*
X180310225Y-113669400D02*
X180167368Y-113740828D01*
X180167368Y-113740828D02*
X179881654Y-113740828D01*
X179881654Y-113740828D02*
X179738797Y-113669400D01*
X179738797Y-113669400D02*
X179595939Y-113526542D01*
X179595939Y-113526542D02*
X179524511Y-113240828D01*
X179524511Y-113240828D02*
X179524511Y-112740828D01*
X179524511Y-112740828D02*
X179595939Y-112455114D01*
X179595939Y-112455114D02*
X179738797Y-112312257D01*
X179738797Y-112312257D02*
X179881654Y-112240828D01*
X180953083Y-112240828D02*
X181810226Y-112240828D01*
X181381654Y-113740828D02*
X181381654Y-112240828D01*
X183981653Y-113740828D02*
X183481653Y-113026542D01*
X183124510Y-113740828D02*
X183124510Y-112240828D01*
X183124510Y-112240828D02*
X183695939Y-112240828D01*
X183695939Y-112240828D02*
X183838796Y-112312257D01*
X183838796Y-112312257D02*
X183910225Y-112383685D01*
X183910225Y-112383685D02*
X183981653Y-112526542D01*
X183981653Y-112526542D02*
X183981653Y-112740828D01*
X183981653Y-112740828D02*
X183910225Y-112883685D01*
X183910225Y-112883685D02*
X183838796Y-112955114D01*
X183838796Y-112955114D02*
X183695939Y-113026542D01*
X183695939Y-113026542D02*
X183124510Y-113026542D01*
X184624510Y-112955114D02*
X185124510Y-112955114D01*
X185338796Y-113740828D02*
X184624510Y-113740828D01*
X184624510Y-113740828D02*
X184624510Y-112240828D01*
X184624510Y-112240828D02*
X185338796Y-112240828D01*
X185910225Y-113669400D02*
X186124511Y-113740828D01*
X186124511Y-113740828D02*
X186481653Y-113740828D01*
X186481653Y-113740828D02*
X186624511Y-113669400D01*
X186624511Y-113669400D02*
X186695939Y-113597971D01*
X186695939Y-113597971D02*
X186767368Y-113455114D01*
X186767368Y-113455114D02*
X186767368Y-113312257D01*
X186767368Y-113312257D02*
X186695939Y-113169400D01*
X186695939Y-113169400D02*
X186624511Y-113097971D01*
X186624511Y-113097971D02*
X186481653Y-113026542D01*
X186481653Y-113026542D02*
X186195939Y-112955114D01*
X186195939Y-112955114D02*
X186053082Y-112883685D01*
X186053082Y-112883685D02*
X185981653Y-112812257D01*
X185981653Y-112812257D02*
X185910225Y-112669400D01*
X185910225Y-112669400D02*
X185910225Y-112526542D01*
X185910225Y-112526542D02*
X185981653Y-112383685D01*
X185981653Y-112383685D02*
X186053082Y-112312257D01*
X186053082Y-112312257D02*
X186195939Y-112240828D01*
X186195939Y-112240828D02*
X186553082Y-112240828D01*
X186553082Y-112240828D02*
X186767368Y-112312257D01*
X187410224Y-112955114D02*
X187910224Y-112955114D01*
X188124510Y-113740828D02*
X187410224Y-113740828D01*
X187410224Y-113740828D02*
X187410224Y-112240828D01*
X187410224Y-112240828D02*
X188124510Y-112240828D01*
X188553082Y-112240828D02*
X189410225Y-112240828D01*
X188981653Y-113740828D02*
X188981653Y-112240828D01*
D11*
X213666667Y-146307200D02*
X213809524Y-146354819D01*
X213809524Y-146354819D02*
X214047619Y-146354819D01*
X214047619Y-146354819D02*
X214142857Y-146307200D01*
X214142857Y-146307200D02*
X214190476Y-146259580D01*
X214190476Y-146259580D02*
X214238095Y-146164342D01*
X214238095Y-146164342D02*
X214238095Y-146069104D01*
X214238095Y-146069104D02*
X214190476Y-145973866D01*
X214190476Y-145973866D02*
X214142857Y-145926247D01*
X214142857Y-145926247D02*
X214047619Y-145878628D01*
X214047619Y-145878628D02*
X213857143Y-145831009D01*
X213857143Y-145831009D02*
X213761905Y-145783390D01*
X213761905Y-145783390D02*
X213714286Y-145735771D01*
X213714286Y-145735771D02*
X213666667Y-145640533D01*
X213666667Y-145640533D02*
X213666667Y-145545295D01*
X213666667Y-145545295D02*
X213714286Y-145450057D01*
X213714286Y-145450057D02*
X213761905Y-145402438D01*
X213761905Y-145402438D02*
X213857143Y-145354819D01*
X213857143Y-145354819D02*
X214095238Y-145354819D01*
X214095238Y-145354819D02*
X214238095Y-145402438D01*
X214571429Y-145354819D02*
X214809524Y-146354819D01*
X214809524Y-146354819D02*
X215000000Y-145640533D01*
X215000000Y-145640533D02*
X215190476Y-146354819D01*
X215190476Y-146354819D02*
X215428572Y-145354819D01*
X215714286Y-145354819D02*
X216380952Y-145354819D01*
X216380952Y-145354819D02*
X215952381Y-146354819D01*
X234190476Y-183254819D02*
X234190476Y-182254819D01*
X234190476Y-182254819D02*
X234523809Y-182969104D01*
X234523809Y-182969104D02*
X234857142Y-182254819D01*
X234857142Y-182254819D02*
X234857142Y-183254819D01*
X235238095Y-182254819D02*
X235857142Y-182254819D01*
X235857142Y-182254819D02*
X235523809Y-182635771D01*
X235523809Y-182635771D02*
X235666666Y-182635771D01*
X235666666Y-182635771D02*
X235761904Y-182683390D01*
X235761904Y-182683390D02*
X235809523Y-182731009D01*
X235809523Y-182731009D02*
X235857142Y-182826247D01*
X235857142Y-182826247D02*
X235857142Y-183064342D01*
X235857142Y-183064342D02*
X235809523Y-183159580D01*
X235809523Y-183159580D02*
X235761904Y-183207200D01*
X235761904Y-183207200D02*
X235666666Y-183254819D01*
X235666666Y-183254819D02*
X235380952Y-183254819D01*
X235380952Y-183254819D02*
X235285714Y-183207200D01*
X235285714Y-183207200D02*
X235238095Y-183159580D01*
X287980476Y-107757200D02*
X288123333Y-107804819D01*
X288123333Y-107804819D02*
X288361428Y-107804819D01*
X288361428Y-107804819D02*
X288456666Y-107757200D01*
X288456666Y-107757200D02*
X288504285Y-107709580D01*
X288504285Y-107709580D02*
X288551904Y-107614342D01*
X288551904Y-107614342D02*
X288551904Y-107519104D01*
X288551904Y-107519104D02*
X288504285Y-107423866D01*
X288504285Y-107423866D02*
X288456666Y-107376247D01*
X288456666Y-107376247D02*
X288361428Y-107328628D01*
X288361428Y-107328628D02*
X288170952Y-107281009D01*
X288170952Y-107281009D02*
X288075714Y-107233390D01*
X288075714Y-107233390D02*
X288028095Y-107185771D01*
X288028095Y-107185771D02*
X287980476Y-107090533D01*
X287980476Y-107090533D02*
X287980476Y-106995295D01*
X287980476Y-106995295D02*
X288028095Y-106900057D01*
X288028095Y-106900057D02*
X288075714Y-106852438D01*
X288075714Y-106852438D02*
X288170952Y-106804819D01*
X288170952Y-106804819D02*
X288409047Y-106804819D01*
X288409047Y-106804819D02*
X288551904Y-106852438D01*
X288885238Y-106804819D02*
X289123333Y-107804819D01*
X289123333Y-107804819D02*
X289313809Y-107090533D01*
X289313809Y-107090533D02*
X289504285Y-107804819D01*
X289504285Y-107804819D02*
X289742381Y-106804819D01*
X290647142Y-107804819D02*
X290075714Y-107804819D01*
X290361428Y-107804819D02*
X290361428Y-106804819D01*
X290361428Y-106804819D02*
X290266190Y-106947676D01*
X290266190Y-106947676D02*
X290170952Y-107042914D01*
X290170952Y-107042914D02*
X290075714Y-107090533D01*
X291266190Y-106804819D02*
X291361428Y-106804819D01*
X291361428Y-106804819D02*
X291456666Y-106852438D01*
X291456666Y-106852438D02*
X291504285Y-106900057D01*
X291504285Y-106900057D02*
X291551904Y-106995295D01*
X291551904Y-106995295D02*
X291599523Y-107185771D01*
X291599523Y-107185771D02*
X291599523Y-107423866D01*
X291599523Y-107423866D02*
X291551904Y-107614342D01*
X291551904Y-107614342D02*
X291504285Y-107709580D01*
X291504285Y-107709580D02*
X291456666Y-107757200D01*
X291456666Y-107757200D02*
X291361428Y-107804819D01*
X291361428Y-107804819D02*
X291266190Y-107804819D01*
X291266190Y-107804819D02*
X291170952Y-107757200D01*
X291170952Y-107757200D02*
X291123333Y-107709580D01*
X291123333Y-107709580D02*
X291075714Y-107614342D01*
X291075714Y-107614342D02*
X291028095Y-107423866D01*
X291028095Y-107423866D02*
X291028095Y-107185771D01*
X291028095Y-107185771D02*
X291075714Y-106995295D01*
X291075714Y-106995295D02*
X291123333Y-106900057D01*
X291123333Y-106900057D02*
X291170952Y-106852438D01*
X291170952Y-106852438D02*
X291266190Y-106804819D01*
X200303333Y-107399580D02*
X200255714Y-107447200D01*
X200255714Y-107447200D02*
X200112857Y-107494819D01*
X200112857Y-107494819D02*
X200017619Y-107494819D01*
X200017619Y-107494819D02*
X199874762Y-107447200D01*
X199874762Y-107447200D02*
X199779524Y-107351961D01*
X199779524Y-107351961D02*
X199731905Y-107256723D01*
X199731905Y-107256723D02*
X199684286Y-107066247D01*
X199684286Y-107066247D02*
X199684286Y-106923390D01*
X199684286Y-106923390D02*
X199731905Y-106732914D01*
X199731905Y-106732914D02*
X199779524Y-106637676D01*
X199779524Y-106637676D02*
X199874762Y-106542438D01*
X199874762Y-106542438D02*
X200017619Y-106494819D01*
X200017619Y-106494819D02*
X200112857Y-106494819D01*
X200112857Y-106494819D02*
X200255714Y-106542438D01*
X200255714Y-106542438D02*
X200303333Y-106590057D01*
X200636667Y-106494819D02*
X201255714Y-106494819D01*
X201255714Y-106494819D02*
X200922381Y-106875771D01*
X200922381Y-106875771D02*
X201065238Y-106875771D01*
X201065238Y-106875771D02*
X201160476Y-106923390D01*
X201160476Y-106923390D02*
X201208095Y-106971009D01*
X201208095Y-106971009D02*
X201255714Y-107066247D01*
X201255714Y-107066247D02*
X201255714Y-107304342D01*
X201255714Y-107304342D02*
X201208095Y-107399580D01*
X201208095Y-107399580D02*
X201160476Y-107447200D01*
X201160476Y-107447200D02*
X201065238Y-107494819D01*
X201065238Y-107494819D02*
X200779524Y-107494819D01*
X200779524Y-107494819D02*
X200684286Y-107447200D01*
X200684286Y-107447200D02*
X200636667Y-107399580D01*
X264210476Y-149497200D02*
X264353333Y-149544819D01*
X264353333Y-149544819D02*
X264591428Y-149544819D01*
X264591428Y-149544819D02*
X264686666Y-149497200D01*
X264686666Y-149497200D02*
X264734285Y-149449580D01*
X264734285Y-149449580D02*
X264781904Y-149354342D01*
X264781904Y-149354342D02*
X264781904Y-149259104D01*
X264781904Y-149259104D02*
X264734285Y-149163866D01*
X264734285Y-149163866D02*
X264686666Y-149116247D01*
X264686666Y-149116247D02*
X264591428Y-149068628D01*
X264591428Y-149068628D02*
X264400952Y-149021009D01*
X264400952Y-149021009D02*
X264305714Y-148973390D01*
X264305714Y-148973390D02*
X264258095Y-148925771D01*
X264258095Y-148925771D02*
X264210476Y-148830533D01*
X264210476Y-148830533D02*
X264210476Y-148735295D01*
X264210476Y-148735295D02*
X264258095Y-148640057D01*
X264258095Y-148640057D02*
X264305714Y-148592438D01*
X264305714Y-148592438D02*
X264400952Y-148544819D01*
X264400952Y-148544819D02*
X264639047Y-148544819D01*
X264639047Y-148544819D02*
X264781904Y-148592438D01*
X265115238Y-148544819D02*
X265353333Y-149544819D01*
X265353333Y-149544819D02*
X265543809Y-148830533D01*
X265543809Y-148830533D02*
X265734285Y-149544819D01*
X265734285Y-149544819D02*
X265972381Y-148544819D01*
X266877142Y-149544819D02*
X266305714Y-149544819D01*
X266591428Y-149544819D02*
X266591428Y-148544819D01*
X266591428Y-148544819D02*
X266496190Y-148687676D01*
X266496190Y-148687676D02*
X266400952Y-148782914D01*
X266400952Y-148782914D02*
X266305714Y-148830533D01*
X267210476Y-148544819D02*
X267829523Y-148544819D01*
X267829523Y-148544819D02*
X267496190Y-148925771D01*
X267496190Y-148925771D02*
X267639047Y-148925771D01*
X267639047Y-148925771D02*
X267734285Y-148973390D01*
X267734285Y-148973390D02*
X267781904Y-149021009D01*
X267781904Y-149021009D02*
X267829523Y-149116247D01*
X267829523Y-149116247D02*
X267829523Y-149354342D01*
X267829523Y-149354342D02*
X267781904Y-149449580D01*
X267781904Y-149449580D02*
X267734285Y-149497200D01*
X267734285Y-149497200D02*
X267639047Y-149544819D01*
X267639047Y-149544819D02*
X267353333Y-149544819D01*
X267353333Y-149544819D02*
X267258095Y-149497200D01*
X267258095Y-149497200D02*
X267210476Y-149449580D01*
X193703333Y-83839580D02*
X193655714Y-83887200D01*
X193655714Y-83887200D02*
X193512857Y-83934819D01*
X193512857Y-83934819D02*
X193417619Y-83934819D01*
X193417619Y-83934819D02*
X193274762Y-83887200D01*
X193274762Y-83887200D02*
X193179524Y-83791961D01*
X193179524Y-83791961D02*
X193131905Y-83696723D01*
X193131905Y-83696723D02*
X193084286Y-83506247D01*
X193084286Y-83506247D02*
X193084286Y-83363390D01*
X193084286Y-83363390D02*
X193131905Y-83172914D01*
X193131905Y-83172914D02*
X193179524Y-83077676D01*
X193179524Y-83077676D02*
X193274762Y-82982438D01*
X193274762Y-82982438D02*
X193417619Y-82934819D01*
X193417619Y-82934819D02*
X193512857Y-82934819D01*
X193512857Y-82934819D02*
X193655714Y-82982438D01*
X193655714Y-82982438D02*
X193703333Y-83030057D01*
X194608095Y-82934819D02*
X194131905Y-82934819D01*
X194131905Y-82934819D02*
X194084286Y-83411009D01*
X194084286Y-83411009D02*
X194131905Y-83363390D01*
X194131905Y-83363390D02*
X194227143Y-83315771D01*
X194227143Y-83315771D02*
X194465238Y-83315771D01*
X194465238Y-83315771D02*
X194560476Y-83363390D01*
X194560476Y-83363390D02*
X194608095Y-83411009D01*
X194608095Y-83411009D02*
X194655714Y-83506247D01*
X194655714Y-83506247D02*
X194655714Y-83744342D01*
X194655714Y-83744342D02*
X194608095Y-83839580D01*
X194608095Y-83839580D02*
X194560476Y-83887200D01*
X194560476Y-83887200D02*
X194465238Y-83934819D01*
X194465238Y-83934819D02*
X194227143Y-83934819D01*
X194227143Y-83934819D02*
X194131905Y-83887200D01*
X194131905Y-83887200D02*
X194084286Y-83839580D01*
X195603333Y-103794819D02*
X195270000Y-103318628D01*
X195031905Y-103794819D02*
X195031905Y-102794819D01*
X195031905Y-102794819D02*
X195412857Y-102794819D01*
X195412857Y-102794819D02*
X195508095Y-102842438D01*
X195508095Y-102842438D02*
X195555714Y-102890057D01*
X195555714Y-102890057D02*
X195603333Y-102985295D01*
X195603333Y-102985295D02*
X195603333Y-103128152D01*
X195603333Y-103128152D02*
X195555714Y-103223390D01*
X195555714Y-103223390D02*
X195508095Y-103271009D01*
X195508095Y-103271009D02*
X195412857Y-103318628D01*
X195412857Y-103318628D02*
X195031905Y-103318628D01*
X196508095Y-102794819D02*
X196031905Y-102794819D01*
X196031905Y-102794819D02*
X195984286Y-103271009D01*
X195984286Y-103271009D02*
X196031905Y-103223390D01*
X196031905Y-103223390D02*
X196127143Y-103175771D01*
X196127143Y-103175771D02*
X196365238Y-103175771D01*
X196365238Y-103175771D02*
X196460476Y-103223390D01*
X196460476Y-103223390D02*
X196508095Y-103271009D01*
X196508095Y-103271009D02*
X196555714Y-103366247D01*
X196555714Y-103366247D02*
X196555714Y-103604342D01*
X196555714Y-103604342D02*
X196508095Y-103699580D01*
X196508095Y-103699580D02*
X196460476Y-103747200D01*
X196460476Y-103747200D02*
X196365238Y-103794819D01*
X196365238Y-103794819D02*
X196127143Y-103794819D01*
X196127143Y-103794819D02*
X196031905Y-103747200D01*
X196031905Y-103747200D02*
X195984286Y-103699580D01*
X191527142Y-93199580D02*
X191479523Y-93247200D01*
X191479523Y-93247200D02*
X191336666Y-93294819D01*
X191336666Y-93294819D02*
X191241428Y-93294819D01*
X191241428Y-93294819D02*
X191098571Y-93247200D01*
X191098571Y-93247200D02*
X191003333Y-93151961D01*
X191003333Y-93151961D02*
X190955714Y-93056723D01*
X190955714Y-93056723D02*
X190908095Y-92866247D01*
X190908095Y-92866247D02*
X190908095Y-92723390D01*
X190908095Y-92723390D02*
X190955714Y-92532914D01*
X190955714Y-92532914D02*
X191003333Y-92437676D01*
X191003333Y-92437676D02*
X191098571Y-92342438D01*
X191098571Y-92342438D02*
X191241428Y-92294819D01*
X191241428Y-92294819D02*
X191336666Y-92294819D01*
X191336666Y-92294819D02*
X191479523Y-92342438D01*
X191479523Y-92342438D02*
X191527142Y-92390057D01*
X192479523Y-93294819D02*
X191908095Y-93294819D01*
X192193809Y-93294819D02*
X192193809Y-92294819D01*
X192193809Y-92294819D02*
X192098571Y-92437676D01*
X192098571Y-92437676D02*
X192003333Y-92532914D01*
X192003333Y-92532914D02*
X191908095Y-92580533D01*
X193431904Y-93294819D02*
X192860476Y-93294819D01*
X193146190Y-93294819D02*
X193146190Y-92294819D01*
X193146190Y-92294819D02*
X193050952Y-92437676D01*
X193050952Y-92437676D02*
X192955714Y-92532914D01*
X192955714Y-92532914D02*
X192860476Y-92580533D01*
X203527142Y-92399580D02*
X203479523Y-92447200D01*
X203479523Y-92447200D02*
X203336666Y-92494819D01*
X203336666Y-92494819D02*
X203241428Y-92494819D01*
X203241428Y-92494819D02*
X203098571Y-92447200D01*
X203098571Y-92447200D02*
X203003333Y-92351961D01*
X203003333Y-92351961D02*
X202955714Y-92256723D01*
X202955714Y-92256723D02*
X202908095Y-92066247D01*
X202908095Y-92066247D02*
X202908095Y-91923390D01*
X202908095Y-91923390D02*
X202955714Y-91732914D01*
X202955714Y-91732914D02*
X203003333Y-91637676D01*
X203003333Y-91637676D02*
X203098571Y-91542438D01*
X203098571Y-91542438D02*
X203241428Y-91494819D01*
X203241428Y-91494819D02*
X203336666Y-91494819D01*
X203336666Y-91494819D02*
X203479523Y-91542438D01*
X203479523Y-91542438D02*
X203527142Y-91590057D01*
X204479523Y-92494819D02*
X203908095Y-92494819D01*
X204193809Y-92494819D02*
X204193809Y-91494819D01*
X204193809Y-91494819D02*
X204098571Y-91637676D01*
X204098571Y-91637676D02*
X204003333Y-91732914D01*
X204003333Y-91732914D02*
X203908095Y-91780533D01*
X205336666Y-91494819D02*
X205146190Y-91494819D01*
X205146190Y-91494819D02*
X205050952Y-91542438D01*
X205050952Y-91542438D02*
X205003333Y-91590057D01*
X205003333Y-91590057D02*
X204908095Y-91732914D01*
X204908095Y-91732914D02*
X204860476Y-91923390D01*
X204860476Y-91923390D02*
X204860476Y-92304342D01*
X204860476Y-92304342D02*
X204908095Y-92399580D01*
X204908095Y-92399580D02*
X204955714Y-92447200D01*
X204955714Y-92447200D02*
X205050952Y-92494819D01*
X205050952Y-92494819D02*
X205241428Y-92494819D01*
X205241428Y-92494819D02*
X205336666Y-92447200D01*
X205336666Y-92447200D02*
X205384285Y-92399580D01*
X205384285Y-92399580D02*
X205431904Y-92304342D01*
X205431904Y-92304342D02*
X205431904Y-92066247D01*
X205431904Y-92066247D02*
X205384285Y-91971009D01*
X205384285Y-91971009D02*
X205336666Y-91923390D01*
X205336666Y-91923390D02*
X205241428Y-91875771D01*
X205241428Y-91875771D02*
X205050952Y-91875771D01*
X205050952Y-91875771D02*
X204955714Y-91923390D01*
X204955714Y-91923390D02*
X204908095Y-91971009D01*
X204908095Y-91971009D02*
X204860476Y-92066247D01*
X135036667Y-117477200D02*
X135179524Y-117524819D01*
X135179524Y-117524819D02*
X135417619Y-117524819D01*
X135417619Y-117524819D02*
X135512857Y-117477200D01*
X135512857Y-117477200D02*
X135560476Y-117429580D01*
X135560476Y-117429580D02*
X135608095Y-117334342D01*
X135608095Y-117334342D02*
X135608095Y-117239104D01*
X135608095Y-117239104D02*
X135560476Y-117143866D01*
X135560476Y-117143866D02*
X135512857Y-117096247D01*
X135512857Y-117096247D02*
X135417619Y-117048628D01*
X135417619Y-117048628D02*
X135227143Y-117001009D01*
X135227143Y-117001009D02*
X135131905Y-116953390D01*
X135131905Y-116953390D02*
X135084286Y-116905771D01*
X135084286Y-116905771D02*
X135036667Y-116810533D01*
X135036667Y-116810533D02*
X135036667Y-116715295D01*
X135036667Y-116715295D02*
X135084286Y-116620057D01*
X135084286Y-116620057D02*
X135131905Y-116572438D01*
X135131905Y-116572438D02*
X135227143Y-116524819D01*
X135227143Y-116524819D02*
X135465238Y-116524819D01*
X135465238Y-116524819D02*
X135608095Y-116572438D01*
X135941429Y-116524819D02*
X136179524Y-117524819D01*
X136179524Y-117524819D02*
X136370000Y-116810533D01*
X136370000Y-116810533D02*
X136560476Y-117524819D01*
X136560476Y-117524819D02*
X136798572Y-116524819D01*
X137131905Y-116620057D02*
X137179524Y-116572438D01*
X137179524Y-116572438D02*
X137274762Y-116524819D01*
X137274762Y-116524819D02*
X137512857Y-116524819D01*
X137512857Y-116524819D02*
X137608095Y-116572438D01*
X137608095Y-116572438D02*
X137655714Y-116620057D01*
X137655714Y-116620057D02*
X137703333Y-116715295D01*
X137703333Y-116715295D02*
X137703333Y-116810533D01*
X137703333Y-116810533D02*
X137655714Y-116953390D01*
X137655714Y-116953390D02*
X137084286Y-117524819D01*
X137084286Y-117524819D02*
X137703333Y-117524819D01*
X175227200Y-108549523D02*
X175274819Y-108406666D01*
X175274819Y-108406666D02*
X175274819Y-108168571D01*
X175274819Y-108168571D02*
X175227200Y-108073333D01*
X175227200Y-108073333D02*
X175179580Y-108025714D01*
X175179580Y-108025714D02*
X175084342Y-107978095D01*
X175084342Y-107978095D02*
X174989104Y-107978095D01*
X174989104Y-107978095D02*
X174893866Y-108025714D01*
X174893866Y-108025714D02*
X174846247Y-108073333D01*
X174846247Y-108073333D02*
X174798628Y-108168571D01*
X174798628Y-108168571D02*
X174751009Y-108359047D01*
X174751009Y-108359047D02*
X174703390Y-108454285D01*
X174703390Y-108454285D02*
X174655771Y-108501904D01*
X174655771Y-108501904D02*
X174560533Y-108549523D01*
X174560533Y-108549523D02*
X174465295Y-108549523D01*
X174465295Y-108549523D02*
X174370057Y-108501904D01*
X174370057Y-108501904D02*
X174322438Y-108454285D01*
X174322438Y-108454285D02*
X174274819Y-108359047D01*
X174274819Y-108359047D02*
X174274819Y-108120952D01*
X174274819Y-108120952D02*
X174322438Y-107978095D01*
X174274819Y-107644761D02*
X175274819Y-107406666D01*
X175274819Y-107406666D02*
X174560533Y-107216190D01*
X174560533Y-107216190D02*
X175274819Y-107025714D01*
X175274819Y-107025714D02*
X174274819Y-106787619D01*
X175274819Y-105882857D02*
X175274819Y-106454285D01*
X175274819Y-106168571D02*
X174274819Y-106168571D01*
X174274819Y-106168571D02*
X174417676Y-106263809D01*
X174417676Y-106263809D02*
X174512914Y-106359047D01*
X174512914Y-106359047D02*
X174560533Y-106454285D01*
X175274819Y-105406666D02*
X175274819Y-105216190D01*
X175274819Y-105216190D02*
X175227200Y-105120952D01*
X175227200Y-105120952D02*
X175179580Y-105073333D01*
X175179580Y-105073333D02*
X175036723Y-104978095D01*
X175036723Y-104978095D02*
X174846247Y-104930476D01*
X174846247Y-104930476D02*
X174465295Y-104930476D01*
X174465295Y-104930476D02*
X174370057Y-104978095D01*
X174370057Y-104978095D02*
X174322438Y-105025714D01*
X174322438Y-105025714D02*
X174274819Y-105120952D01*
X174274819Y-105120952D02*
X174274819Y-105311428D01*
X174274819Y-105311428D02*
X174322438Y-105406666D01*
X174322438Y-105406666D02*
X174370057Y-105454285D01*
X174370057Y-105454285D02*
X174465295Y-105501904D01*
X174465295Y-105501904D02*
X174703390Y-105501904D01*
X174703390Y-105501904D02*
X174798628Y-105454285D01*
X174798628Y-105454285D02*
X174846247Y-105406666D01*
X174846247Y-105406666D02*
X174893866Y-105311428D01*
X174893866Y-105311428D02*
X174893866Y-105120952D01*
X174893866Y-105120952D02*
X174846247Y-105025714D01*
X174846247Y-105025714D02*
X174798628Y-104978095D01*
X174798628Y-104978095D02*
X174703390Y-104930476D01*
X193703333Y-104599580D02*
X193655714Y-104647200D01*
X193655714Y-104647200D02*
X193512857Y-104694819D01*
X193512857Y-104694819D02*
X193417619Y-104694819D01*
X193417619Y-104694819D02*
X193274762Y-104647200D01*
X193274762Y-104647200D02*
X193179524Y-104551961D01*
X193179524Y-104551961D02*
X193131905Y-104456723D01*
X193131905Y-104456723D02*
X193084286Y-104266247D01*
X193084286Y-104266247D02*
X193084286Y-104123390D01*
X193084286Y-104123390D02*
X193131905Y-103932914D01*
X193131905Y-103932914D02*
X193179524Y-103837676D01*
X193179524Y-103837676D02*
X193274762Y-103742438D01*
X193274762Y-103742438D02*
X193417619Y-103694819D01*
X193417619Y-103694819D02*
X193512857Y-103694819D01*
X193512857Y-103694819D02*
X193655714Y-103742438D01*
X193655714Y-103742438D02*
X193703333Y-103790057D01*
X194084286Y-103790057D02*
X194131905Y-103742438D01*
X194131905Y-103742438D02*
X194227143Y-103694819D01*
X194227143Y-103694819D02*
X194465238Y-103694819D01*
X194465238Y-103694819D02*
X194560476Y-103742438D01*
X194560476Y-103742438D02*
X194608095Y-103790057D01*
X194608095Y-103790057D02*
X194655714Y-103885295D01*
X194655714Y-103885295D02*
X194655714Y-103980533D01*
X194655714Y-103980533D02*
X194608095Y-104123390D01*
X194608095Y-104123390D02*
X194036667Y-104694819D01*
X194036667Y-104694819D02*
X194655714Y-104694819D01*
X189408095Y-84029819D02*
X189408095Y-84839342D01*
X189408095Y-84839342D02*
X189455714Y-84934580D01*
X189455714Y-84934580D02*
X189503333Y-84982200D01*
X189503333Y-84982200D02*
X189598571Y-85029819D01*
X189598571Y-85029819D02*
X189789047Y-85029819D01*
X189789047Y-85029819D02*
X189884285Y-84982200D01*
X189884285Y-84982200D02*
X189931904Y-84934580D01*
X189931904Y-84934580D02*
X189979523Y-84839342D01*
X189979523Y-84839342D02*
X189979523Y-84029819D01*
X190408095Y-84125057D02*
X190455714Y-84077438D01*
X190455714Y-84077438D02*
X190550952Y-84029819D01*
X190550952Y-84029819D02*
X190789047Y-84029819D01*
X190789047Y-84029819D02*
X190884285Y-84077438D01*
X190884285Y-84077438D02*
X190931904Y-84125057D01*
X190931904Y-84125057D02*
X190979523Y-84220295D01*
X190979523Y-84220295D02*
X190979523Y-84315533D01*
X190979523Y-84315533D02*
X190931904Y-84458390D01*
X190931904Y-84458390D02*
X190360476Y-85029819D01*
X190360476Y-85029819D02*
X190979523Y-85029819D01*
X316920476Y-134397200D02*
X317063333Y-134444819D01*
X317063333Y-134444819D02*
X317301428Y-134444819D01*
X317301428Y-134444819D02*
X317396666Y-134397200D01*
X317396666Y-134397200D02*
X317444285Y-134349580D01*
X317444285Y-134349580D02*
X317491904Y-134254342D01*
X317491904Y-134254342D02*
X317491904Y-134159104D01*
X317491904Y-134159104D02*
X317444285Y-134063866D01*
X317444285Y-134063866D02*
X317396666Y-134016247D01*
X317396666Y-134016247D02*
X317301428Y-133968628D01*
X317301428Y-133968628D02*
X317110952Y-133921009D01*
X317110952Y-133921009D02*
X317015714Y-133873390D01*
X317015714Y-133873390D02*
X316968095Y-133825771D01*
X316968095Y-133825771D02*
X316920476Y-133730533D01*
X316920476Y-133730533D02*
X316920476Y-133635295D01*
X316920476Y-133635295D02*
X316968095Y-133540057D01*
X316968095Y-133540057D02*
X317015714Y-133492438D01*
X317015714Y-133492438D02*
X317110952Y-133444819D01*
X317110952Y-133444819D02*
X317349047Y-133444819D01*
X317349047Y-133444819D02*
X317491904Y-133492438D01*
X317825238Y-133444819D02*
X318063333Y-134444819D01*
X318063333Y-134444819D02*
X318253809Y-133730533D01*
X318253809Y-133730533D02*
X318444285Y-134444819D01*
X318444285Y-134444819D02*
X318682381Y-133444819D01*
X319587142Y-134444819D02*
X319015714Y-134444819D01*
X319301428Y-134444819D02*
X319301428Y-133444819D01*
X319301428Y-133444819D02*
X319206190Y-133587676D01*
X319206190Y-133587676D02*
X319110952Y-133682914D01*
X319110952Y-133682914D02*
X319015714Y-133730533D01*
X320491904Y-133444819D02*
X320015714Y-133444819D01*
X320015714Y-133444819D02*
X319968095Y-133921009D01*
X319968095Y-133921009D02*
X320015714Y-133873390D01*
X320015714Y-133873390D02*
X320110952Y-133825771D01*
X320110952Y-133825771D02*
X320349047Y-133825771D01*
X320349047Y-133825771D02*
X320444285Y-133873390D01*
X320444285Y-133873390D02*
X320491904Y-133921009D01*
X320491904Y-133921009D02*
X320539523Y-134016247D01*
X320539523Y-134016247D02*
X320539523Y-134254342D01*
X320539523Y-134254342D02*
X320491904Y-134349580D01*
X320491904Y-134349580D02*
X320444285Y-134397200D01*
X320444285Y-134397200D02*
X320349047Y-134444819D01*
X320349047Y-134444819D02*
X320110952Y-134444819D01*
X320110952Y-134444819D02*
X320015714Y-134397200D01*
X320015714Y-134397200D02*
X319968095Y-134349580D01*
X174190476Y-83254819D02*
X174190476Y-82254819D01*
X174190476Y-82254819D02*
X174523809Y-82969104D01*
X174523809Y-82969104D02*
X174857142Y-82254819D01*
X174857142Y-82254819D02*
X174857142Y-83254819D01*
X175238095Y-82254819D02*
X175857142Y-82254819D01*
X175857142Y-82254819D02*
X175523809Y-82635771D01*
X175523809Y-82635771D02*
X175666666Y-82635771D01*
X175666666Y-82635771D02*
X175761904Y-82683390D01*
X175761904Y-82683390D02*
X175809523Y-82731009D01*
X175809523Y-82731009D02*
X175857142Y-82826247D01*
X175857142Y-82826247D02*
X175857142Y-83064342D01*
X175857142Y-83064342D02*
X175809523Y-83159580D01*
X175809523Y-83159580D02*
X175761904Y-83207200D01*
X175761904Y-83207200D02*
X175666666Y-83254819D01*
X175666666Y-83254819D02*
X175380952Y-83254819D01*
X175380952Y-83254819D02*
X175285714Y-83207200D01*
X175285714Y-83207200D02*
X175238095Y-83159580D01*
X315760476Y-106417200D02*
X315903333Y-106464819D01*
X315903333Y-106464819D02*
X316141428Y-106464819D01*
X316141428Y-106464819D02*
X316236666Y-106417200D01*
X316236666Y-106417200D02*
X316284285Y-106369580D01*
X316284285Y-106369580D02*
X316331904Y-106274342D01*
X316331904Y-106274342D02*
X316331904Y-106179104D01*
X316331904Y-106179104D02*
X316284285Y-106083866D01*
X316284285Y-106083866D02*
X316236666Y-106036247D01*
X316236666Y-106036247D02*
X316141428Y-105988628D01*
X316141428Y-105988628D02*
X315950952Y-105941009D01*
X315950952Y-105941009D02*
X315855714Y-105893390D01*
X315855714Y-105893390D02*
X315808095Y-105845771D01*
X315808095Y-105845771D02*
X315760476Y-105750533D01*
X315760476Y-105750533D02*
X315760476Y-105655295D01*
X315760476Y-105655295D02*
X315808095Y-105560057D01*
X315808095Y-105560057D02*
X315855714Y-105512438D01*
X315855714Y-105512438D02*
X315950952Y-105464819D01*
X315950952Y-105464819D02*
X316189047Y-105464819D01*
X316189047Y-105464819D02*
X316331904Y-105512438D01*
X316665238Y-105464819D02*
X316903333Y-106464819D01*
X316903333Y-106464819D02*
X317093809Y-105750533D01*
X317093809Y-105750533D02*
X317284285Y-106464819D01*
X317284285Y-106464819D02*
X317522381Y-105464819D01*
X318427142Y-106464819D02*
X317855714Y-106464819D01*
X318141428Y-106464819D02*
X318141428Y-105464819D01*
X318141428Y-105464819D02*
X318046190Y-105607676D01*
X318046190Y-105607676D02*
X317950952Y-105702914D01*
X317950952Y-105702914D02*
X317855714Y-105750533D01*
X319379523Y-106464819D02*
X318808095Y-106464819D01*
X319093809Y-106464819D02*
X319093809Y-105464819D01*
X319093809Y-105464819D02*
X318998571Y-105607676D01*
X318998571Y-105607676D02*
X318903333Y-105702914D01*
X318903333Y-105702914D02*
X318808095Y-105750533D01*
X264226667Y-121487200D02*
X264369524Y-121534819D01*
X264369524Y-121534819D02*
X264607619Y-121534819D01*
X264607619Y-121534819D02*
X264702857Y-121487200D01*
X264702857Y-121487200D02*
X264750476Y-121439580D01*
X264750476Y-121439580D02*
X264798095Y-121344342D01*
X264798095Y-121344342D02*
X264798095Y-121249104D01*
X264798095Y-121249104D02*
X264750476Y-121153866D01*
X264750476Y-121153866D02*
X264702857Y-121106247D01*
X264702857Y-121106247D02*
X264607619Y-121058628D01*
X264607619Y-121058628D02*
X264417143Y-121011009D01*
X264417143Y-121011009D02*
X264321905Y-120963390D01*
X264321905Y-120963390D02*
X264274286Y-120915771D01*
X264274286Y-120915771D02*
X264226667Y-120820533D01*
X264226667Y-120820533D02*
X264226667Y-120725295D01*
X264226667Y-120725295D02*
X264274286Y-120630057D01*
X264274286Y-120630057D02*
X264321905Y-120582438D01*
X264321905Y-120582438D02*
X264417143Y-120534819D01*
X264417143Y-120534819D02*
X264655238Y-120534819D01*
X264655238Y-120534819D02*
X264798095Y-120582438D01*
X265131429Y-120534819D02*
X265369524Y-121534819D01*
X265369524Y-121534819D02*
X265560000Y-120820533D01*
X265560000Y-120820533D02*
X265750476Y-121534819D01*
X265750476Y-121534819D02*
X265988572Y-120534819D01*
X266417143Y-121534819D02*
X266607619Y-121534819D01*
X266607619Y-121534819D02*
X266702857Y-121487200D01*
X266702857Y-121487200D02*
X266750476Y-121439580D01*
X266750476Y-121439580D02*
X266845714Y-121296723D01*
X266845714Y-121296723D02*
X266893333Y-121106247D01*
X266893333Y-121106247D02*
X266893333Y-120725295D01*
X266893333Y-120725295D02*
X266845714Y-120630057D01*
X266845714Y-120630057D02*
X266798095Y-120582438D01*
X266798095Y-120582438D02*
X266702857Y-120534819D01*
X266702857Y-120534819D02*
X266512381Y-120534819D01*
X266512381Y-120534819D02*
X266417143Y-120582438D01*
X266417143Y-120582438D02*
X266369524Y-120630057D01*
X266369524Y-120630057D02*
X266321905Y-120725295D01*
X266321905Y-120725295D02*
X266321905Y-120963390D01*
X266321905Y-120963390D02*
X266369524Y-121058628D01*
X266369524Y-121058628D02*
X266417143Y-121106247D01*
X266417143Y-121106247D02*
X266512381Y-121153866D01*
X266512381Y-121153866D02*
X266702857Y-121153866D01*
X266702857Y-121153866D02*
X266798095Y-121106247D01*
X266798095Y-121106247D02*
X266845714Y-121058628D01*
X266845714Y-121058628D02*
X266893333Y-120963390D01*
X206303333Y-94999580D02*
X206255714Y-95047200D01*
X206255714Y-95047200D02*
X206112857Y-95094819D01*
X206112857Y-95094819D02*
X206017619Y-95094819D01*
X206017619Y-95094819D02*
X205874762Y-95047200D01*
X205874762Y-95047200D02*
X205779524Y-94951961D01*
X205779524Y-94951961D02*
X205731905Y-94856723D01*
X205731905Y-94856723D02*
X205684286Y-94666247D01*
X205684286Y-94666247D02*
X205684286Y-94523390D01*
X205684286Y-94523390D02*
X205731905Y-94332914D01*
X205731905Y-94332914D02*
X205779524Y-94237676D01*
X205779524Y-94237676D02*
X205874762Y-94142438D01*
X205874762Y-94142438D02*
X206017619Y-94094819D01*
X206017619Y-94094819D02*
X206112857Y-94094819D01*
X206112857Y-94094819D02*
X206255714Y-94142438D01*
X206255714Y-94142438D02*
X206303333Y-94190057D01*
X207160476Y-94428152D02*
X207160476Y-95094819D01*
X206922381Y-94047200D02*
X206684286Y-94761485D01*
X206684286Y-94761485D02*
X207303333Y-94761485D01*
X89190476Y-178254819D02*
X89190476Y-177254819D01*
X89190476Y-177254819D02*
X89523809Y-177969104D01*
X89523809Y-177969104D02*
X89857142Y-177254819D01*
X89857142Y-177254819D02*
X89857142Y-178254819D01*
X90238095Y-177254819D02*
X90857142Y-177254819D01*
X90857142Y-177254819D02*
X90523809Y-177635771D01*
X90523809Y-177635771D02*
X90666666Y-177635771D01*
X90666666Y-177635771D02*
X90761904Y-177683390D01*
X90761904Y-177683390D02*
X90809523Y-177731009D01*
X90809523Y-177731009D02*
X90857142Y-177826247D01*
X90857142Y-177826247D02*
X90857142Y-178064342D01*
X90857142Y-178064342D02*
X90809523Y-178159580D01*
X90809523Y-178159580D02*
X90761904Y-178207200D01*
X90761904Y-178207200D02*
X90666666Y-178254819D01*
X90666666Y-178254819D02*
X90380952Y-178254819D01*
X90380952Y-178254819D02*
X90285714Y-178207200D01*
X90285714Y-178207200D02*
X90238095Y-178159580D01*
X197108095Y-91912319D02*
X197108095Y-92721842D01*
X197108095Y-92721842D02*
X197155714Y-92817080D01*
X197155714Y-92817080D02*
X197203333Y-92864700D01*
X197203333Y-92864700D02*
X197298571Y-92912319D01*
X197298571Y-92912319D02*
X197489047Y-92912319D01*
X197489047Y-92912319D02*
X197584285Y-92864700D01*
X197584285Y-92864700D02*
X197631904Y-92817080D01*
X197631904Y-92817080D02*
X197679523Y-92721842D01*
X197679523Y-92721842D02*
X197679523Y-91912319D01*
X198060476Y-91912319D02*
X198679523Y-91912319D01*
X198679523Y-91912319D02*
X198346190Y-92293271D01*
X198346190Y-92293271D02*
X198489047Y-92293271D01*
X198489047Y-92293271D02*
X198584285Y-92340890D01*
X198584285Y-92340890D02*
X198631904Y-92388509D01*
X198631904Y-92388509D02*
X198679523Y-92483747D01*
X198679523Y-92483747D02*
X198679523Y-92721842D01*
X198679523Y-92721842D02*
X198631904Y-92817080D01*
X198631904Y-92817080D02*
X198584285Y-92864700D01*
X198584285Y-92864700D02*
X198489047Y-92912319D01*
X198489047Y-92912319D02*
X198203333Y-92912319D01*
X198203333Y-92912319D02*
X198108095Y-92864700D01*
X198108095Y-92864700D02*
X198060476Y-92817080D01*
X339190476Y-178254819D02*
X339190476Y-177254819D01*
X339190476Y-177254819D02*
X339523809Y-177969104D01*
X339523809Y-177969104D02*
X339857142Y-177254819D01*
X339857142Y-177254819D02*
X339857142Y-178254819D01*
X340238095Y-177254819D02*
X340857142Y-177254819D01*
X340857142Y-177254819D02*
X340523809Y-177635771D01*
X340523809Y-177635771D02*
X340666666Y-177635771D01*
X340666666Y-177635771D02*
X340761904Y-177683390D01*
X340761904Y-177683390D02*
X340809523Y-177731009D01*
X340809523Y-177731009D02*
X340857142Y-177826247D01*
X340857142Y-177826247D02*
X340857142Y-178064342D01*
X340857142Y-178064342D02*
X340809523Y-178159580D01*
X340809523Y-178159580D02*
X340761904Y-178207200D01*
X340761904Y-178207200D02*
X340666666Y-178254819D01*
X340666666Y-178254819D02*
X340380952Y-178254819D01*
X340380952Y-178254819D02*
X340285714Y-178207200D01*
X340285714Y-178207200D02*
X340238095Y-178159580D01*
X158756667Y-132367200D02*
X158899524Y-132414819D01*
X158899524Y-132414819D02*
X159137619Y-132414819D01*
X159137619Y-132414819D02*
X159232857Y-132367200D01*
X159232857Y-132367200D02*
X159280476Y-132319580D01*
X159280476Y-132319580D02*
X159328095Y-132224342D01*
X159328095Y-132224342D02*
X159328095Y-132129104D01*
X159328095Y-132129104D02*
X159280476Y-132033866D01*
X159280476Y-132033866D02*
X159232857Y-131986247D01*
X159232857Y-131986247D02*
X159137619Y-131938628D01*
X159137619Y-131938628D02*
X158947143Y-131891009D01*
X158947143Y-131891009D02*
X158851905Y-131843390D01*
X158851905Y-131843390D02*
X158804286Y-131795771D01*
X158804286Y-131795771D02*
X158756667Y-131700533D01*
X158756667Y-131700533D02*
X158756667Y-131605295D01*
X158756667Y-131605295D02*
X158804286Y-131510057D01*
X158804286Y-131510057D02*
X158851905Y-131462438D01*
X158851905Y-131462438D02*
X158947143Y-131414819D01*
X158947143Y-131414819D02*
X159185238Y-131414819D01*
X159185238Y-131414819D02*
X159328095Y-131462438D01*
X159661429Y-131414819D02*
X159899524Y-132414819D01*
X159899524Y-132414819D02*
X160090000Y-131700533D01*
X160090000Y-131700533D02*
X160280476Y-132414819D01*
X160280476Y-132414819D02*
X160518572Y-131414819D01*
X160804286Y-131414819D02*
X161423333Y-131414819D01*
X161423333Y-131414819D02*
X161090000Y-131795771D01*
X161090000Y-131795771D02*
X161232857Y-131795771D01*
X161232857Y-131795771D02*
X161328095Y-131843390D01*
X161328095Y-131843390D02*
X161375714Y-131891009D01*
X161375714Y-131891009D02*
X161423333Y-131986247D01*
X161423333Y-131986247D02*
X161423333Y-132224342D01*
X161423333Y-132224342D02*
X161375714Y-132319580D01*
X161375714Y-132319580D02*
X161328095Y-132367200D01*
X161328095Y-132367200D02*
X161232857Y-132414819D01*
X161232857Y-132414819D02*
X160947143Y-132414819D01*
X160947143Y-132414819D02*
X160851905Y-132367200D01*
X160851905Y-132367200D02*
X160804286Y-132319580D01*
X212123333Y-88262319D02*
X211790000Y-87786128D01*
X211551905Y-88262319D02*
X211551905Y-87262319D01*
X211551905Y-87262319D02*
X211932857Y-87262319D01*
X211932857Y-87262319D02*
X212028095Y-87309938D01*
X212028095Y-87309938D02*
X212075714Y-87357557D01*
X212075714Y-87357557D02*
X212123333Y-87452795D01*
X212123333Y-87452795D02*
X212123333Y-87595652D01*
X212123333Y-87595652D02*
X212075714Y-87690890D01*
X212075714Y-87690890D02*
X212028095Y-87738509D01*
X212028095Y-87738509D02*
X211932857Y-87786128D01*
X211932857Y-87786128D02*
X211551905Y-87786128D01*
X212980476Y-87262319D02*
X212790000Y-87262319D01*
X212790000Y-87262319D02*
X212694762Y-87309938D01*
X212694762Y-87309938D02*
X212647143Y-87357557D01*
X212647143Y-87357557D02*
X212551905Y-87500414D01*
X212551905Y-87500414D02*
X212504286Y-87690890D01*
X212504286Y-87690890D02*
X212504286Y-88071842D01*
X212504286Y-88071842D02*
X212551905Y-88167080D01*
X212551905Y-88167080D02*
X212599524Y-88214700D01*
X212599524Y-88214700D02*
X212694762Y-88262319D01*
X212694762Y-88262319D02*
X212885238Y-88262319D01*
X212885238Y-88262319D02*
X212980476Y-88214700D01*
X212980476Y-88214700D02*
X213028095Y-88167080D01*
X213028095Y-88167080D02*
X213075714Y-88071842D01*
X213075714Y-88071842D02*
X213075714Y-87833747D01*
X213075714Y-87833747D02*
X213028095Y-87738509D01*
X213028095Y-87738509D02*
X212980476Y-87690890D01*
X212980476Y-87690890D02*
X212885238Y-87643271D01*
X212885238Y-87643271D02*
X212694762Y-87643271D01*
X212694762Y-87643271D02*
X212599524Y-87690890D01*
X212599524Y-87690890D02*
X212551905Y-87738509D01*
X212551905Y-87738509D02*
X212504286Y-87833747D01*
X202429580Y-88782857D02*
X202477200Y-88830476D01*
X202477200Y-88830476D02*
X202524819Y-88973333D01*
X202524819Y-88973333D02*
X202524819Y-89068571D01*
X202524819Y-89068571D02*
X202477200Y-89211428D01*
X202477200Y-89211428D02*
X202381961Y-89306666D01*
X202381961Y-89306666D02*
X202286723Y-89354285D01*
X202286723Y-89354285D02*
X202096247Y-89401904D01*
X202096247Y-89401904D02*
X201953390Y-89401904D01*
X201953390Y-89401904D02*
X201762914Y-89354285D01*
X201762914Y-89354285D02*
X201667676Y-89306666D01*
X201667676Y-89306666D02*
X201572438Y-89211428D01*
X201572438Y-89211428D02*
X201524819Y-89068571D01*
X201524819Y-89068571D02*
X201524819Y-88973333D01*
X201524819Y-88973333D02*
X201572438Y-88830476D01*
X201572438Y-88830476D02*
X201620057Y-88782857D01*
X202524819Y-87830476D02*
X202524819Y-88401904D01*
X202524819Y-88116190D02*
X201524819Y-88116190D01*
X201524819Y-88116190D02*
X201667676Y-88211428D01*
X201667676Y-88211428D02*
X201762914Y-88306666D01*
X201762914Y-88306666D02*
X201810533Y-88401904D01*
X201524819Y-87211428D02*
X201524819Y-87116190D01*
X201524819Y-87116190D02*
X201572438Y-87020952D01*
X201572438Y-87020952D02*
X201620057Y-86973333D01*
X201620057Y-86973333D02*
X201715295Y-86925714D01*
X201715295Y-86925714D02*
X201905771Y-86878095D01*
X201905771Y-86878095D02*
X202143866Y-86878095D01*
X202143866Y-86878095D02*
X202334342Y-86925714D01*
X202334342Y-86925714D02*
X202429580Y-86973333D01*
X202429580Y-86973333D02*
X202477200Y-87020952D01*
X202477200Y-87020952D02*
X202524819Y-87116190D01*
X202524819Y-87116190D02*
X202524819Y-87211428D01*
X202524819Y-87211428D02*
X202477200Y-87306666D01*
X202477200Y-87306666D02*
X202429580Y-87354285D01*
X202429580Y-87354285D02*
X202334342Y-87401904D01*
X202334342Y-87401904D02*
X202143866Y-87449523D01*
X202143866Y-87449523D02*
X201905771Y-87449523D01*
X201905771Y-87449523D02*
X201715295Y-87401904D01*
X201715295Y-87401904D02*
X201620057Y-87354285D01*
X201620057Y-87354285D02*
X201572438Y-87306666D01*
X201572438Y-87306666D02*
X201524819Y-87211428D01*
X168666667Y-186147200D02*
X168809524Y-186194819D01*
X168809524Y-186194819D02*
X169047619Y-186194819D01*
X169047619Y-186194819D02*
X169142857Y-186147200D01*
X169142857Y-186147200D02*
X169190476Y-186099580D01*
X169190476Y-186099580D02*
X169238095Y-186004342D01*
X169238095Y-186004342D02*
X169238095Y-185909104D01*
X169238095Y-185909104D02*
X169190476Y-185813866D01*
X169190476Y-185813866D02*
X169142857Y-185766247D01*
X169142857Y-185766247D02*
X169047619Y-185718628D01*
X169047619Y-185718628D02*
X168857143Y-185671009D01*
X168857143Y-185671009D02*
X168761905Y-185623390D01*
X168761905Y-185623390D02*
X168714286Y-185575771D01*
X168714286Y-185575771D02*
X168666667Y-185480533D01*
X168666667Y-185480533D02*
X168666667Y-185385295D01*
X168666667Y-185385295D02*
X168714286Y-185290057D01*
X168714286Y-185290057D02*
X168761905Y-185242438D01*
X168761905Y-185242438D02*
X168857143Y-185194819D01*
X168857143Y-185194819D02*
X169095238Y-185194819D01*
X169095238Y-185194819D02*
X169238095Y-185242438D01*
X169571429Y-185194819D02*
X169809524Y-186194819D01*
X169809524Y-186194819D02*
X170000000Y-185480533D01*
X170000000Y-185480533D02*
X170190476Y-186194819D01*
X170190476Y-186194819D02*
X170428572Y-185194819D01*
X171238095Y-185528152D02*
X171238095Y-186194819D01*
X171000000Y-185147200D02*
X170761905Y-185861485D01*
X170761905Y-185861485D02*
X171380952Y-185861485D01*
X254190476Y-83254819D02*
X254190476Y-82254819D01*
X254190476Y-82254819D02*
X254523809Y-82969104D01*
X254523809Y-82969104D02*
X254857142Y-82254819D01*
X254857142Y-82254819D02*
X254857142Y-83254819D01*
X255238095Y-82254819D02*
X255857142Y-82254819D01*
X255857142Y-82254819D02*
X255523809Y-82635771D01*
X255523809Y-82635771D02*
X255666666Y-82635771D01*
X255666666Y-82635771D02*
X255761904Y-82683390D01*
X255761904Y-82683390D02*
X255809523Y-82731009D01*
X255809523Y-82731009D02*
X255857142Y-82826247D01*
X255857142Y-82826247D02*
X255857142Y-83064342D01*
X255857142Y-83064342D02*
X255809523Y-83159580D01*
X255809523Y-83159580D02*
X255761904Y-83207200D01*
X255761904Y-83207200D02*
X255666666Y-83254819D01*
X255666666Y-83254819D02*
X255380952Y-83254819D01*
X255380952Y-83254819D02*
X255285714Y-83207200D01*
X255285714Y-83207200D02*
X255238095Y-83159580D01*
X197956104Y-87506666D02*
X197994200Y-87554285D01*
X197994200Y-87554285D02*
X198032295Y-87697142D01*
X198032295Y-87697142D02*
X198032295Y-87792380D01*
X198032295Y-87792380D02*
X197994200Y-87935237D01*
X197994200Y-87935237D02*
X197918009Y-88030475D01*
X197918009Y-88030475D02*
X197841819Y-88078094D01*
X197841819Y-88078094D02*
X197689438Y-88125713D01*
X197689438Y-88125713D02*
X197575152Y-88125713D01*
X197575152Y-88125713D02*
X197422771Y-88078094D01*
X197422771Y-88078094D02*
X197346580Y-88030475D01*
X197346580Y-88030475D02*
X197270390Y-87935237D01*
X197270390Y-87935237D02*
X197232295Y-87792380D01*
X197232295Y-87792380D02*
X197232295Y-87697142D01*
X197232295Y-87697142D02*
X197270390Y-87554285D01*
X197270390Y-87554285D02*
X197308485Y-87506666D01*
X198032295Y-87030475D02*
X198032295Y-86839999D01*
X198032295Y-86839999D02*
X197994200Y-86744761D01*
X197994200Y-86744761D02*
X197956104Y-86697142D01*
X197956104Y-86697142D02*
X197841819Y-86601904D01*
X197841819Y-86601904D02*
X197689438Y-86554285D01*
X197689438Y-86554285D02*
X197384676Y-86554285D01*
X197384676Y-86554285D02*
X197308485Y-86601904D01*
X197308485Y-86601904D02*
X197270390Y-86649523D01*
X197270390Y-86649523D02*
X197232295Y-86744761D01*
X197232295Y-86744761D02*
X197232295Y-86935237D01*
X197232295Y-86935237D02*
X197270390Y-87030475D01*
X197270390Y-87030475D02*
X197308485Y-87078094D01*
X197308485Y-87078094D02*
X197384676Y-87125713D01*
X197384676Y-87125713D02*
X197575152Y-87125713D01*
X197575152Y-87125713D02*
X197651342Y-87078094D01*
X197651342Y-87078094D02*
X197689438Y-87030475D01*
X197689438Y-87030475D02*
X197727533Y-86935237D01*
X197727533Y-86935237D02*
X197727533Y-86744761D01*
X197727533Y-86744761D02*
X197689438Y-86649523D01*
X197689438Y-86649523D02*
X197651342Y-86601904D01*
X197651342Y-86601904D02*
X197575152Y-86554285D01*
X205661905Y-83404819D02*
X205661905Y-84214342D01*
X205661905Y-84214342D02*
X205709524Y-84309580D01*
X205709524Y-84309580D02*
X205757143Y-84357200D01*
X205757143Y-84357200D02*
X205852381Y-84404819D01*
X205852381Y-84404819D02*
X206042857Y-84404819D01*
X206042857Y-84404819D02*
X206138095Y-84357200D01*
X206138095Y-84357200D02*
X206185714Y-84309580D01*
X206185714Y-84309580D02*
X206233333Y-84214342D01*
X206233333Y-84214342D02*
X206233333Y-83404819D01*
X206661905Y-84357200D02*
X206804762Y-84404819D01*
X206804762Y-84404819D02*
X207042857Y-84404819D01*
X207042857Y-84404819D02*
X207138095Y-84357200D01*
X207138095Y-84357200D02*
X207185714Y-84309580D01*
X207185714Y-84309580D02*
X207233333Y-84214342D01*
X207233333Y-84214342D02*
X207233333Y-84119104D01*
X207233333Y-84119104D02*
X207185714Y-84023866D01*
X207185714Y-84023866D02*
X207138095Y-83976247D01*
X207138095Y-83976247D02*
X207042857Y-83928628D01*
X207042857Y-83928628D02*
X206852381Y-83881009D01*
X206852381Y-83881009D02*
X206757143Y-83833390D01*
X206757143Y-83833390D02*
X206709524Y-83785771D01*
X206709524Y-83785771D02*
X206661905Y-83690533D01*
X206661905Y-83690533D02*
X206661905Y-83595295D01*
X206661905Y-83595295D02*
X206709524Y-83500057D01*
X206709524Y-83500057D02*
X206757143Y-83452438D01*
X206757143Y-83452438D02*
X206852381Y-83404819D01*
X206852381Y-83404819D02*
X207090476Y-83404819D01*
X207090476Y-83404819D02*
X207233333Y-83452438D01*
X207995238Y-83881009D02*
X208138095Y-83928628D01*
X208138095Y-83928628D02*
X208185714Y-83976247D01*
X208185714Y-83976247D02*
X208233333Y-84071485D01*
X208233333Y-84071485D02*
X208233333Y-84214342D01*
X208233333Y-84214342D02*
X208185714Y-84309580D01*
X208185714Y-84309580D02*
X208138095Y-84357200D01*
X208138095Y-84357200D02*
X208042857Y-84404819D01*
X208042857Y-84404819D02*
X207661905Y-84404819D01*
X207661905Y-84404819D02*
X207661905Y-83404819D01*
X207661905Y-83404819D02*
X207995238Y-83404819D01*
X207995238Y-83404819D02*
X208090476Y-83452438D01*
X208090476Y-83452438D02*
X208138095Y-83500057D01*
X208138095Y-83500057D02*
X208185714Y-83595295D01*
X208185714Y-83595295D02*
X208185714Y-83690533D01*
X208185714Y-83690533D02*
X208138095Y-83785771D01*
X208138095Y-83785771D02*
X208090476Y-83833390D01*
X208090476Y-83833390D02*
X207995238Y-83881009D01*
X207995238Y-83881009D02*
X207661905Y-83881009D01*
X209185714Y-84404819D02*
X208614286Y-84404819D01*
X208900000Y-84404819D02*
X208900000Y-83404819D01*
X208900000Y-83404819D02*
X208804762Y-83547676D01*
X208804762Y-83547676D02*
X208709524Y-83642914D01*
X208709524Y-83642914D02*
X208614286Y-83690533D01*
X342470476Y-147207200D02*
X342613333Y-147254819D01*
X342613333Y-147254819D02*
X342851428Y-147254819D01*
X342851428Y-147254819D02*
X342946666Y-147207200D01*
X342946666Y-147207200D02*
X342994285Y-147159580D01*
X342994285Y-147159580D02*
X343041904Y-147064342D01*
X343041904Y-147064342D02*
X343041904Y-146969104D01*
X343041904Y-146969104D02*
X342994285Y-146873866D01*
X342994285Y-146873866D02*
X342946666Y-146826247D01*
X342946666Y-146826247D02*
X342851428Y-146778628D01*
X342851428Y-146778628D02*
X342660952Y-146731009D01*
X342660952Y-146731009D02*
X342565714Y-146683390D01*
X342565714Y-146683390D02*
X342518095Y-146635771D01*
X342518095Y-146635771D02*
X342470476Y-146540533D01*
X342470476Y-146540533D02*
X342470476Y-146445295D01*
X342470476Y-146445295D02*
X342518095Y-146350057D01*
X342518095Y-146350057D02*
X342565714Y-146302438D01*
X342565714Y-146302438D02*
X342660952Y-146254819D01*
X342660952Y-146254819D02*
X342899047Y-146254819D01*
X342899047Y-146254819D02*
X343041904Y-146302438D01*
X343375238Y-146254819D02*
X343613333Y-147254819D01*
X343613333Y-147254819D02*
X343803809Y-146540533D01*
X343803809Y-146540533D02*
X343994285Y-147254819D01*
X343994285Y-147254819D02*
X344232381Y-146254819D01*
X345137142Y-147254819D02*
X344565714Y-147254819D01*
X344851428Y-147254819D02*
X344851428Y-146254819D01*
X344851428Y-146254819D02*
X344756190Y-146397676D01*
X344756190Y-146397676D02*
X344660952Y-146492914D01*
X344660952Y-146492914D02*
X344565714Y-146540533D01*
X345994285Y-146254819D02*
X345803809Y-146254819D01*
X345803809Y-146254819D02*
X345708571Y-146302438D01*
X345708571Y-146302438D02*
X345660952Y-146350057D01*
X345660952Y-146350057D02*
X345565714Y-146492914D01*
X345565714Y-146492914D02*
X345518095Y-146683390D01*
X345518095Y-146683390D02*
X345518095Y-147064342D01*
X345518095Y-147064342D02*
X345565714Y-147159580D01*
X345565714Y-147159580D02*
X345613333Y-147207200D01*
X345613333Y-147207200D02*
X345708571Y-147254819D01*
X345708571Y-147254819D02*
X345899047Y-147254819D01*
X345899047Y-147254819D02*
X345994285Y-147207200D01*
X345994285Y-147207200D02*
X346041904Y-147159580D01*
X346041904Y-147159580D02*
X346089523Y-147064342D01*
X346089523Y-147064342D02*
X346089523Y-146826247D01*
X346089523Y-146826247D02*
X346041904Y-146731009D01*
X346041904Y-146731009D02*
X345994285Y-146683390D01*
X345994285Y-146683390D02*
X345899047Y-146635771D01*
X345899047Y-146635771D02*
X345708571Y-146635771D01*
X345708571Y-146635771D02*
X345613333Y-146683390D01*
X345613333Y-146683390D02*
X345565714Y-146731009D01*
X345565714Y-146731009D02*
X345518095Y-146826247D01*
X190927200Y-108549523D02*
X190974819Y-108406666D01*
X190974819Y-108406666D02*
X190974819Y-108168571D01*
X190974819Y-108168571D02*
X190927200Y-108073333D01*
X190927200Y-108073333D02*
X190879580Y-108025714D01*
X190879580Y-108025714D02*
X190784342Y-107978095D01*
X190784342Y-107978095D02*
X190689104Y-107978095D01*
X190689104Y-107978095D02*
X190593866Y-108025714D01*
X190593866Y-108025714D02*
X190546247Y-108073333D01*
X190546247Y-108073333D02*
X190498628Y-108168571D01*
X190498628Y-108168571D02*
X190451009Y-108359047D01*
X190451009Y-108359047D02*
X190403390Y-108454285D01*
X190403390Y-108454285D02*
X190355771Y-108501904D01*
X190355771Y-108501904D02*
X190260533Y-108549523D01*
X190260533Y-108549523D02*
X190165295Y-108549523D01*
X190165295Y-108549523D02*
X190070057Y-108501904D01*
X190070057Y-108501904D02*
X190022438Y-108454285D01*
X190022438Y-108454285D02*
X189974819Y-108359047D01*
X189974819Y-108359047D02*
X189974819Y-108120952D01*
X189974819Y-108120952D02*
X190022438Y-107978095D01*
X189974819Y-107644761D02*
X190974819Y-107406666D01*
X190974819Y-107406666D02*
X190260533Y-107216190D01*
X190260533Y-107216190D02*
X190974819Y-107025714D01*
X190974819Y-107025714D02*
X189974819Y-106787619D01*
X190070057Y-106454285D02*
X190022438Y-106406666D01*
X190022438Y-106406666D02*
X189974819Y-106311428D01*
X189974819Y-106311428D02*
X189974819Y-106073333D01*
X189974819Y-106073333D02*
X190022438Y-105978095D01*
X190022438Y-105978095D02*
X190070057Y-105930476D01*
X190070057Y-105930476D02*
X190165295Y-105882857D01*
X190165295Y-105882857D02*
X190260533Y-105882857D01*
X190260533Y-105882857D02*
X190403390Y-105930476D01*
X190403390Y-105930476D02*
X190974819Y-106501904D01*
X190974819Y-106501904D02*
X190974819Y-105882857D01*
X189974819Y-105263809D02*
X189974819Y-105168571D01*
X189974819Y-105168571D02*
X190022438Y-105073333D01*
X190022438Y-105073333D02*
X190070057Y-105025714D01*
X190070057Y-105025714D02*
X190165295Y-104978095D01*
X190165295Y-104978095D02*
X190355771Y-104930476D01*
X190355771Y-104930476D02*
X190593866Y-104930476D01*
X190593866Y-104930476D02*
X190784342Y-104978095D01*
X190784342Y-104978095D02*
X190879580Y-105025714D01*
X190879580Y-105025714D02*
X190927200Y-105073333D01*
X190927200Y-105073333D02*
X190974819Y-105168571D01*
X190974819Y-105168571D02*
X190974819Y-105263809D01*
X190974819Y-105263809D02*
X190927200Y-105359047D01*
X190927200Y-105359047D02*
X190879580Y-105406666D01*
X190879580Y-105406666D02*
X190784342Y-105454285D01*
X190784342Y-105454285D02*
X190593866Y-105501904D01*
X190593866Y-105501904D02*
X190355771Y-105501904D01*
X190355771Y-105501904D02*
X190165295Y-105454285D01*
X190165295Y-105454285D02*
X190070057Y-105406666D01*
X190070057Y-105406666D02*
X190022438Y-105359047D01*
X190022438Y-105359047D02*
X189974819Y-105263809D01*
X213666667Y-118307200D02*
X213809524Y-118354819D01*
X213809524Y-118354819D02*
X214047619Y-118354819D01*
X214047619Y-118354819D02*
X214142857Y-118307200D01*
X214142857Y-118307200D02*
X214190476Y-118259580D01*
X214190476Y-118259580D02*
X214238095Y-118164342D01*
X214238095Y-118164342D02*
X214238095Y-118069104D01*
X214238095Y-118069104D02*
X214190476Y-117973866D01*
X214190476Y-117973866D02*
X214142857Y-117926247D01*
X214142857Y-117926247D02*
X214047619Y-117878628D01*
X214047619Y-117878628D02*
X213857143Y-117831009D01*
X213857143Y-117831009D02*
X213761905Y-117783390D01*
X213761905Y-117783390D02*
X213714286Y-117735771D01*
X213714286Y-117735771D02*
X213666667Y-117640533D01*
X213666667Y-117640533D02*
X213666667Y-117545295D01*
X213666667Y-117545295D02*
X213714286Y-117450057D01*
X213714286Y-117450057D02*
X213761905Y-117402438D01*
X213761905Y-117402438D02*
X213857143Y-117354819D01*
X213857143Y-117354819D02*
X214095238Y-117354819D01*
X214095238Y-117354819D02*
X214238095Y-117402438D01*
X214571429Y-117354819D02*
X214809524Y-118354819D01*
X214809524Y-118354819D02*
X215000000Y-117640533D01*
X215000000Y-117640533D02*
X215190476Y-118354819D01*
X215190476Y-118354819D02*
X215428572Y-117354819D01*
X216238095Y-117354819D02*
X216047619Y-117354819D01*
X216047619Y-117354819D02*
X215952381Y-117402438D01*
X215952381Y-117402438D02*
X215904762Y-117450057D01*
X215904762Y-117450057D02*
X215809524Y-117592914D01*
X215809524Y-117592914D02*
X215761905Y-117783390D01*
X215761905Y-117783390D02*
X215761905Y-118164342D01*
X215761905Y-118164342D02*
X215809524Y-118259580D01*
X215809524Y-118259580D02*
X215857143Y-118307200D01*
X215857143Y-118307200D02*
X215952381Y-118354819D01*
X215952381Y-118354819D02*
X216142857Y-118354819D01*
X216142857Y-118354819D02*
X216238095Y-118307200D01*
X216238095Y-118307200D02*
X216285714Y-118259580D01*
X216285714Y-118259580D02*
X216333333Y-118164342D01*
X216333333Y-118164342D02*
X216333333Y-117926247D01*
X216333333Y-117926247D02*
X216285714Y-117831009D01*
X216285714Y-117831009D02*
X216238095Y-117783390D01*
X216238095Y-117783390D02*
X216142857Y-117735771D01*
X216142857Y-117735771D02*
X215952381Y-117735771D01*
X215952381Y-117735771D02*
X215857143Y-117783390D01*
X215857143Y-117783390D02*
X215809524Y-117831009D01*
X215809524Y-117831009D02*
X215761905Y-117926247D01*
X200262295Y-87506666D02*
X199881342Y-87839999D01*
X200262295Y-88078094D02*
X199462295Y-88078094D01*
X199462295Y-88078094D02*
X199462295Y-87697142D01*
X199462295Y-87697142D02*
X199500390Y-87601904D01*
X199500390Y-87601904D02*
X199538485Y-87554285D01*
X199538485Y-87554285D02*
X199614676Y-87506666D01*
X199614676Y-87506666D02*
X199728961Y-87506666D01*
X199728961Y-87506666D02*
X199805152Y-87554285D01*
X199805152Y-87554285D02*
X199843247Y-87601904D01*
X199843247Y-87601904D02*
X199881342Y-87697142D01*
X199881342Y-87697142D02*
X199881342Y-88078094D01*
X199728961Y-86649523D02*
X200262295Y-86649523D01*
X199424200Y-86887618D02*
X199995628Y-87125713D01*
X199995628Y-87125713D02*
X199995628Y-86506666D01*
X196929580Y-87006666D02*
X196977200Y-87054285D01*
X196977200Y-87054285D02*
X197024819Y-87197142D01*
X197024819Y-87197142D02*
X197024819Y-87292380D01*
X197024819Y-87292380D02*
X196977200Y-87435237D01*
X196977200Y-87435237D02*
X196881961Y-87530475D01*
X196881961Y-87530475D02*
X196786723Y-87578094D01*
X196786723Y-87578094D02*
X196596247Y-87625713D01*
X196596247Y-87625713D02*
X196453390Y-87625713D01*
X196453390Y-87625713D02*
X196262914Y-87578094D01*
X196262914Y-87578094D02*
X196167676Y-87530475D01*
X196167676Y-87530475D02*
X196072438Y-87435237D01*
X196072438Y-87435237D02*
X196024819Y-87292380D01*
X196024819Y-87292380D02*
X196024819Y-87197142D01*
X196024819Y-87197142D02*
X196072438Y-87054285D01*
X196072438Y-87054285D02*
X196120057Y-87006666D01*
X196024819Y-86149523D02*
X196024819Y-86339999D01*
X196024819Y-86339999D02*
X196072438Y-86435237D01*
X196072438Y-86435237D02*
X196120057Y-86482856D01*
X196120057Y-86482856D02*
X196262914Y-86578094D01*
X196262914Y-86578094D02*
X196453390Y-86625713D01*
X196453390Y-86625713D02*
X196834342Y-86625713D01*
X196834342Y-86625713D02*
X196929580Y-86578094D01*
X196929580Y-86578094D02*
X196977200Y-86530475D01*
X196977200Y-86530475D02*
X197024819Y-86435237D01*
X197024819Y-86435237D02*
X197024819Y-86244761D01*
X197024819Y-86244761D02*
X196977200Y-86149523D01*
X196977200Y-86149523D02*
X196929580Y-86101904D01*
X196929580Y-86101904D02*
X196834342Y-86054285D01*
X196834342Y-86054285D02*
X196596247Y-86054285D01*
X196596247Y-86054285D02*
X196501009Y-86101904D01*
X196501009Y-86101904D02*
X196453390Y-86149523D01*
X196453390Y-86149523D02*
X196405771Y-86244761D01*
X196405771Y-86244761D02*
X196405771Y-86435237D01*
X196405771Y-86435237D02*
X196453390Y-86530475D01*
X196453390Y-86530475D02*
X196501009Y-86578094D01*
X196501009Y-86578094D02*
X196596247Y-86625713D01*
X196093809Y-109968628D02*
X196093809Y-110444819D01*
X195760476Y-109444819D02*
X196093809Y-109968628D01*
X196093809Y-109968628D02*
X196427142Y-109444819D01*
X197284285Y-110444819D02*
X196712857Y-110444819D01*
X196998571Y-110444819D02*
X196998571Y-109444819D01*
X196998571Y-109444819D02*
X196903333Y-109587676D01*
X196903333Y-109587676D02*
X196808095Y-109682914D01*
X196808095Y-109682914D02*
X196712857Y-109730533D01*
X213666667Y-174307200D02*
X213809524Y-174354819D01*
X213809524Y-174354819D02*
X214047619Y-174354819D01*
X214047619Y-174354819D02*
X214142857Y-174307200D01*
X214142857Y-174307200D02*
X214190476Y-174259580D01*
X214190476Y-174259580D02*
X214238095Y-174164342D01*
X214238095Y-174164342D02*
X214238095Y-174069104D01*
X214238095Y-174069104D02*
X214190476Y-173973866D01*
X214190476Y-173973866D02*
X214142857Y-173926247D01*
X214142857Y-173926247D02*
X214047619Y-173878628D01*
X214047619Y-173878628D02*
X213857143Y-173831009D01*
X213857143Y-173831009D02*
X213761905Y-173783390D01*
X213761905Y-173783390D02*
X213714286Y-173735771D01*
X213714286Y-173735771D02*
X213666667Y-173640533D01*
X213666667Y-173640533D02*
X213666667Y-173545295D01*
X213666667Y-173545295D02*
X213714286Y-173450057D01*
X213714286Y-173450057D02*
X213761905Y-173402438D01*
X213761905Y-173402438D02*
X213857143Y-173354819D01*
X213857143Y-173354819D02*
X214095238Y-173354819D01*
X214095238Y-173354819D02*
X214238095Y-173402438D01*
X214571429Y-173354819D02*
X214809524Y-174354819D01*
X214809524Y-174354819D02*
X215000000Y-173640533D01*
X215000000Y-173640533D02*
X215190476Y-174354819D01*
X215190476Y-174354819D02*
X215428572Y-173354819D01*
X215952381Y-173783390D02*
X215857143Y-173735771D01*
X215857143Y-173735771D02*
X215809524Y-173688152D01*
X215809524Y-173688152D02*
X215761905Y-173592914D01*
X215761905Y-173592914D02*
X215761905Y-173545295D01*
X215761905Y-173545295D02*
X215809524Y-173450057D01*
X215809524Y-173450057D02*
X215857143Y-173402438D01*
X215857143Y-173402438D02*
X215952381Y-173354819D01*
X215952381Y-173354819D02*
X216142857Y-173354819D01*
X216142857Y-173354819D02*
X216238095Y-173402438D01*
X216238095Y-173402438D02*
X216285714Y-173450057D01*
X216285714Y-173450057D02*
X216333333Y-173545295D01*
X216333333Y-173545295D02*
X216333333Y-173592914D01*
X216333333Y-173592914D02*
X216285714Y-173688152D01*
X216285714Y-173688152D02*
X216238095Y-173735771D01*
X216238095Y-173735771D02*
X216142857Y-173783390D01*
X216142857Y-173783390D02*
X215952381Y-173783390D01*
X215952381Y-173783390D02*
X215857143Y-173831009D01*
X215857143Y-173831009D02*
X215809524Y-173878628D01*
X215809524Y-173878628D02*
X215761905Y-173973866D01*
X215761905Y-173973866D02*
X215761905Y-174164342D01*
X215761905Y-174164342D02*
X215809524Y-174259580D01*
X215809524Y-174259580D02*
X215857143Y-174307200D01*
X215857143Y-174307200D02*
X215952381Y-174354819D01*
X215952381Y-174354819D02*
X216142857Y-174354819D01*
X216142857Y-174354819D02*
X216238095Y-174307200D01*
X216238095Y-174307200D02*
X216285714Y-174259580D01*
X216285714Y-174259580D02*
X216333333Y-174164342D01*
X216333333Y-174164342D02*
X216333333Y-173973866D01*
X216333333Y-173973866D02*
X216285714Y-173878628D01*
X216285714Y-173878628D02*
X216238095Y-173831009D01*
X216238095Y-173831009D02*
X216142857Y-173783390D01*
X258666667Y-186147200D02*
X258809524Y-186194819D01*
X258809524Y-186194819D02*
X259047619Y-186194819D01*
X259047619Y-186194819D02*
X259142857Y-186147200D01*
X259142857Y-186147200D02*
X259190476Y-186099580D01*
X259190476Y-186099580D02*
X259238095Y-186004342D01*
X259238095Y-186004342D02*
X259238095Y-185909104D01*
X259238095Y-185909104D02*
X259190476Y-185813866D01*
X259190476Y-185813866D02*
X259142857Y-185766247D01*
X259142857Y-185766247D02*
X259047619Y-185718628D01*
X259047619Y-185718628D02*
X258857143Y-185671009D01*
X258857143Y-185671009D02*
X258761905Y-185623390D01*
X258761905Y-185623390D02*
X258714286Y-185575771D01*
X258714286Y-185575771D02*
X258666667Y-185480533D01*
X258666667Y-185480533D02*
X258666667Y-185385295D01*
X258666667Y-185385295D02*
X258714286Y-185290057D01*
X258714286Y-185290057D02*
X258761905Y-185242438D01*
X258761905Y-185242438D02*
X258857143Y-185194819D01*
X258857143Y-185194819D02*
X259095238Y-185194819D01*
X259095238Y-185194819D02*
X259238095Y-185242438D01*
X259571429Y-185194819D02*
X259809524Y-186194819D01*
X259809524Y-186194819D02*
X260000000Y-185480533D01*
X260000000Y-185480533D02*
X260190476Y-186194819D01*
X260190476Y-186194819D02*
X260428572Y-185194819D01*
X261285714Y-185194819D02*
X260809524Y-185194819D01*
X260809524Y-185194819D02*
X260761905Y-185671009D01*
X260761905Y-185671009D02*
X260809524Y-185623390D01*
X260809524Y-185623390D02*
X260904762Y-185575771D01*
X260904762Y-185575771D02*
X261142857Y-185575771D01*
X261142857Y-185575771D02*
X261238095Y-185623390D01*
X261238095Y-185623390D02*
X261285714Y-185671009D01*
X261285714Y-185671009D02*
X261333333Y-185766247D01*
X261333333Y-185766247D02*
X261333333Y-186004342D01*
X261333333Y-186004342D02*
X261285714Y-186099580D01*
X261285714Y-186099580D02*
X261238095Y-186147200D01*
X261238095Y-186147200D02*
X261142857Y-186194819D01*
X261142857Y-186194819D02*
X260904762Y-186194819D01*
X260904762Y-186194819D02*
X260809524Y-186147200D01*
X260809524Y-186147200D02*
X260761905Y-186099580D01*
X107126667Y-116167200D02*
X107269524Y-116214819D01*
X107269524Y-116214819D02*
X107507619Y-116214819D01*
X107507619Y-116214819D02*
X107602857Y-116167200D01*
X107602857Y-116167200D02*
X107650476Y-116119580D01*
X107650476Y-116119580D02*
X107698095Y-116024342D01*
X107698095Y-116024342D02*
X107698095Y-115929104D01*
X107698095Y-115929104D02*
X107650476Y-115833866D01*
X107650476Y-115833866D02*
X107602857Y-115786247D01*
X107602857Y-115786247D02*
X107507619Y-115738628D01*
X107507619Y-115738628D02*
X107317143Y-115691009D01*
X107317143Y-115691009D02*
X107221905Y-115643390D01*
X107221905Y-115643390D02*
X107174286Y-115595771D01*
X107174286Y-115595771D02*
X107126667Y-115500533D01*
X107126667Y-115500533D02*
X107126667Y-115405295D01*
X107126667Y-115405295D02*
X107174286Y-115310057D01*
X107174286Y-115310057D02*
X107221905Y-115262438D01*
X107221905Y-115262438D02*
X107317143Y-115214819D01*
X107317143Y-115214819D02*
X107555238Y-115214819D01*
X107555238Y-115214819D02*
X107698095Y-115262438D01*
X108031429Y-115214819D02*
X108269524Y-116214819D01*
X108269524Y-116214819D02*
X108460000Y-115500533D01*
X108460000Y-115500533D02*
X108650476Y-116214819D01*
X108650476Y-116214819D02*
X108888572Y-115214819D01*
X109793333Y-116214819D02*
X109221905Y-116214819D01*
X109507619Y-116214819D02*
X109507619Y-115214819D01*
X109507619Y-115214819D02*
X109412381Y-115357676D01*
X109412381Y-115357676D02*
X109317143Y-115452914D01*
X109317143Y-115452914D02*
X109221905Y-115500533D01*
X191527142Y-97499580D02*
X191479523Y-97547200D01*
X191479523Y-97547200D02*
X191336666Y-97594819D01*
X191336666Y-97594819D02*
X191241428Y-97594819D01*
X191241428Y-97594819D02*
X191098571Y-97547200D01*
X191098571Y-97547200D02*
X191003333Y-97451961D01*
X191003333Y-97451961D02*
X190955714Y-97356723D01*
X190955714Y-97356723D02*
X190908095Y-97166247D01*
X190908095Y-97166247D02*
X190908095Y-97023390D01*
X190908095Y-97023390D02*
X190955714Y-96832914D01*
X190955714Y-96832914D02*
X191003333Y-96737676D01*
X191003333Y-96737676D02*
X191098571Y-96642438D01*
X191098571Y-96642438D02*
X191241428Y-96594819D01*
X191241428Y-96594819D02*
X191336666Y-96594819D01*
X191336666Y-96594819D02*
X191479523Y-96642438D01*
X191479523Y-96642438D02*
X191527142Y-96690057D01*
X192479523Y-97594819D02*
X191908095Y-97594819D01*
X192193809Y-97594819D02*
X192193809Y-96594819D01*
X192193809Y-96594819D02*
X192098571Y-96737676D01*
X192098571Y-96737676D02*
X192003333Y-96832914D01*
X192003333Y-96832914D02*
X191908095Y-96880533D01*
X192812857Y-96594819D02*
X193431904Y-96594819D01*
X193431904Y-96594819D02*
X193098571Y-96975771D01*
X193098571Y-96975771D02*
X193241428Y-96975771D01*
X193241428Y-96975771D02*
X193336666Y-97023390D01*
X193336666Y-97023390D02*
X193384285Y-97071009D01*
X193384285Y-97071009D02*
X193431904Y-97166247D01*
X193431904Y-97166247D02*
X193431904Y-97404342D01*
X193431904Y-97404342D02*
X193384285Y-97499580D01*
X193384285Y-97499580D02*
X193336666Y-97547200D01*
X193336666Y-97547200D02*
X193241428Y-97594819D01*
X193241428Y-97594819D02*
X192955714Y-97594819D01*
X192955714Y-97594819D02*
X192860476Y-97547200D01*
X192860476Y-97547200D02*
X192812857Y-97499580D01*
X188803333Y-94157319D02*
X188470000Y-93681128D01*
X188231905Y-94157319D02*
X188231905Y-93157319D01*
X188231905Y-93157319D02*
X188612857Y-93157319D01*
X188612857Y-93157319D02*
X188708095Y-93204938D01*
X188708095Y-93204938D02*
X188755714Y-93252557D01*
X188755714Y-93252557D02*
X188803333Y-93347795D01*
X188803333Y-93347795D02*
X188803333Y-93490652D01*
X188803333Y-93490652D02*
X188755714Y-93585890D01*
X188755714Y-93585890D02*
X188708095Y-93633509D01*
X188708095Y-93633509D02*
X188612857Y-93681128D01*
X188612857Y-93681128D02*
X188231905Y-93681128D01*
X189755714Y-94157319D02*
X189184286Y-94157319D01*
X189470000Y-94157319D02*
X189470000Y-93157319D01*
X189470000Y-93157319D02*
X189374762Y-93300176D01*
X189374762Y-93300176D02*
X189279524Y-93395414D01*
X189279524Y-93395414D02*
X189184286Y-93443033D01*
X199224819Y-87506666D02*
X198748628Y-87839999D01*
X199224819Y-88078094D02*
X198224819Y-88078094D01*
X198224819Y-88078094D02*
X198224819Y-87697142D01*
X198224819Y-87697142D02*
X198272438Y-87601904D01*
X198272438Y-87601904D02*
X198320057Y-87554285D01*
X198320057Y-87554285D02*
X198415295Y-87506666D01*
X198415295Y-87506666D02*
X198558152Y-87506666D01*
X198558152Y-87506666D02*
X198653390Y-87554285D01*
X198653390Y-87554285D02*
X198701009Y-87601904D01*
X198701009Y-87601904D02*
X198748628Y-87697142D01*
X198748628Y-87697142D02*
X198748628Y-88078094D01*
X198224819Y-87173332D02*
X198224819Y-86554285D01*
X198224819Y-86554285D02*
X198605771Y-86887618D01*
X198605771Y-86887618D02*
X198605771Y-86744761D01*
X198605771Y-86744761D02*
X198653390Y-86649523D01*
X198653390Y-86649523D02*
X198701009Y-86601904D01*
X198701009Y-86601904D02*
X198796247Y-86554285D01*
X198796247Y-86554285D02*
X199034342Y-86554285D01*
X199034342Y-86554285D02*
X199129580Y-86601904D01*
X199129580Y-86601904D02*
X199177200Y-86649523D01*
X199177200Y-86649523D02*
X199224819Y-86744761D01*
X199224819Y-86744761D02*
X199224819Y-87030475D01*
X199224819Y-87030475D02*
X199177200Y-87125713D01*
X199177200Y-87125713D02*
X199129580Y-87173332D01*
X212303333Y-94899580D02*
X212255714Y-94947200D01*
X212255714Y-94947200D02*
X212112857Y-94994819D01*
X212112857Y-94994819D02*
X212017619Y-94994819D01*
X212017619Y-94994819D02*
X211874762Y-94947200D01*
X211874762Y-94947200D02*
X211779524Y-94851961D01*
X211779524Y-94851961D02*
X211731905Y-94756723D01*
X211731905Y-94756723D02*
X211684286Y-94566247D01*
X211684286Y-94566247D02*
X211684286Y-94423390D01*
X211684286Y-94423390D02*
X211731905Y-94232914D01*
X211731905Y-94232914D02*
X211779524Y-94137676D01*
X211779524Y-94137676D02*
X211874762Y-94042438D01*
X211874762Y-94042438D02*
X212017619Y-93994819D01*
X212017619Y-93994819D02*
X212112857Y-93994819D01*
X212112857Y-93994819D02*
X212255714Y-94042438D01*
X212255714Y-94042438D02*
X212303333Y-94090057D01*
X213255714Y-94994819D02*
X212684286Y-94994819D01*
X212970000Y-94994819D02*
X212970000Y-93994819D01*
X212970000Y-93994819D02*
X212874762Y-94137676D01*
X212874762Y-94137676D02*
X212779524Y-94232914D01*
X212779524Y-94232914D02*
X212684286Y-94280533D01*
X200803333Y-103199580D02*
X200755714Y-103247200D01*
X200755714Y-103247200D02*
X200612857Y-103294819D01*
X200612857Y-103294819D02*
X200517619Y-103294819D01*
X200517619Y-103294819D02*
X200374762Y-103247200D01*
X200374762Y-103247200D02*
X200279524Y-103151961D01*
X200279524Y-103151961D02*
X200231905Y-103056723D01*
X200231905Y-103056723D02*
X200184286Y-102866247D01*
X200184286Y-102866247D02*
X200184286Y-102723390D01*
X200184286Y-102723390D02*
X200231905Y-102532914D01*
X200231905Y-102532914D02*
X200279524Y-102437676D01*
X200279524Y-102437676D02*
X200374762Y-102342438D01*
X200374762Y-102342438D02*
X200517619Y-102294819D01*
X200517619Y-102294819D02*
X200612857Y-102294819D01*
X200612857Y-102294819D02*
X200755714Y-102342438D01*
X200755714Y-102342438D02*
X200803333Y-102390057D01*
X201136667Y-102294819D02*
X201803333Y-102294819D01*
X201803333Y-102294819D02*
X201374762Y-103294819D01*
X89190476Y-88254819D02*
X89190476Y-87254819D01*
X89190476Y-87254819D02*
X89523809Y-87969104D01*
X89523809Y-87969104D02*
X89857142Y-87254819D01*
X89857142Y-87254819D02*
X89857142Y-88254819D01*
X90238095Y-87254819D02*
X90857142Y-87254819D01*
X90857142Y-87254819D02*
X90523809Y-87635771D01*
X90523809Y-87635771D02*
X90666666Y-87635771D01*
X90666666Y-87635771D02*
X90761904Y-87683390D01*
X90761904Y-87683390D02*
X90809523Y-87731009D01*
X90809523Y-87731009D02*
X90857142Y-87826247D01*
X90857142Y-87826247D02*
X90857142Y-88064342D01*
X90857142Y-88064342D02*
X90809523Y-88159580D01*
X90809523Y-88159580D02*
X90761904Y-88207200D01*
X90761904Y-88207200D02*
X90666666Y-88254819D01*
X90666666Y-88254819D02*
X90380952Y-88254819D01*
X90380952Y-88254819D02*
X90285714Y-88207200D01*
X90285714Y-88207200D02*
X90238095Y-88159580D01*
X195727142Y-102499580D02*
X195679523Y-102547200D01*
X195679523Y-102547200D02*
X195536666Y-102594819D01*
X195536666Y-102594819D02*
X195441428Y-102594819D01*
X195441428Y-102594819D02*
X195298571Y-102547200D01*
X195298571Y-102547200D02*
X195203333Y-102451961D01*
X195203333Y-102451961D02*
X195155714Y-102356723D01*
X195155714Y-102356723D02*
X195108095Y-102166247D01*
X195108095Y-102166247D02*
X195108095Y-102023390D01*
X195108095Y-102023390D02*
X195155714Y-101832914D01*
X195155714Y-101832914D02*
X195203333Y-101737676D01*
X195203333Y-101737676D02*
X195298571Y-101642438D01*
X195298571Y-101642438D02*
X195441428Y-101594819D01*
X195441428Y-101594819D02*
X195536666Y-101594819D01*
X195536666Y-101594819D02*
X195679523Y-101642438D01*
X195679523Y-101642438D02*
X195727142Y-101690057D01*
X196679523Y-102594819D02*
X196108095Y-102594819D01*
X196393809Y-102594819D02*
X196393809Y-101594819D01*
X196393809Y-101594819D02*
X196298571Y-101737676D01*
X196298571Y-101737676D02*
X196203333Y-101832914D01*
X196203333Y-101832914D02*
X196108095Y-101880533D01*
X197536666Y-101928152D02*
X197536666Y-102594819D01*
X197298571Y-101547200D02*
X197060476Y-102261485D01*
X197060476Y-102261485D02*
X197679523Y-102261485D01*
X340690476Y-119267200D02*
X340833333Y-119314819D01*
X340833333Y-119314819D02*
X341071428Y-119314819D01*
X341071428Y-119314819D02*
X341166666Y-119267200D01*
X341166666Y-119267200D02*
X341214285Y-119219580D01*
X341214285Y-119219580D02*
X341261904Y-119124342D01*
X341261904Y-119124342D02*
X341261904Y-119029104D01*
X341261904Y-119029104D02*
X341214285Y-118933866D01*
X341214285Y-118933866D02*
X341166666Y-118886247D01*
X341166666Y-118886247D02*
X341071428Y-118838628D01*
X341071428Y-118838628D02*
X340880952Y-118791009D01*
X340880952Y-118791009D02*
X340785714Y-118743390D01*
X340785714Y-118743390D02*
X340738095Y-118695771D01*
X340738095Y-118695771D02*
X340690476Y-118600533D01*
X340690476Y-118600533D02*
X340690476Y-118505295D01*
X340690476Y-118505295D02*
X340738095Y-118410057D01*
X340738095Y-118410057D02*
X340785714Y-118362438D01*
X340785714Y-118362438D02*
X340880952Y-118314819D01*
X340880952Y-118314819D02*
X341119047Y-118314819D01*
X341119047Y-118314819D02*
X341261904Y-118362438D01*
X341595238Y-118314819D02*
X341833333Y-119314819D01*
X341833333Y-119314819D02*
X342023809Y-118600533D01*
X342023809Y-118600533D02*
X342214285Y-119314819D01*
X342214285Y-119314819D02*
X342452381Y-118314819D01*
X343357142Y-119314819D02*
X342785714Y-119314819D01*
X343071428Y-119314819D02*
X343071428Y-118314819D01*
X343071428Y-118314819D02*
X342976190Y-118457676D01*
X342976190Y-118457676D02*
X342880952Y-118552914D01*
X342880952Y-118552914D02*
X342785714Y-118600533D01*
X343738095Y-118410057D02*
X343785714Y-118362438D01*
X343785714Y-118362438D02*
X343880952Y-118314819D01*
X343880952Y-118314819D02*
X344119047Y-118314819D01*
X344119047Y-118314819D02*
X344214285Y-118362438D01*
X344214285Y-118362438D02*
X344261904Y-118410057D01*
X344261904Y-118410057D02*
X344309523Y-118505295D01*
X344309523Y-118505295D02*
X344309523Y-118600533D01*
X344309523Y-118600533D02*
X344261904Y-118743390D01*
X344261904Y-118743390D02*
X343690476Y-119314819D01*
X343690476Y-119314819D02*
X344309523Y-119314819D01*
X183903333Y-85524819D02*
X183570000Y-85048628D01*
X183331905Y-85524819D02*
X183331905Y-84524819D01*
X183331905Y-84524819D02*
X183712857Y-84524819D01*
X183712857Y-84524819D02*
X183808095Y-84572438D01*
X183808095Y-84572438D02*
X183855714Y-84620057D01*
X183855714Y-84620057D02*
X183903333Y-84715295D01*
X183903333Y-84715295D02*
X183903333Y-84858152D01*
X183903333Y-84858152D02*
X183855714Y-84953390D01*
X183855714Y-84953390D02*
X183808095Y-85001009D01*
X183808095Y-85001009D02*
X183712857Y-85048628D01*
X183712857Y-85048628D02*
X183331905Y-85048628D01*
X184284286Y-84620057D02*
X184331905Y-84572438D01*
X184331905Y-84572438D02*
X184427143Y-84524819D01*
X184427143Y-84524819D02*
X184665238Y-84524819D01*
X184665238Y-84524819D02*
X184760476Y-84572438D01*
X184760476Y-84572438D02*
X184808095Y-84620057D01*
X184808095Y-84620057D02*
X184855714Y-84715295D01*
X184855714Y-84715295D02*
X184855714Y-84810533D01*
X184855714Y-84810533D02*
X184808095Y-84953390D01*
X184808095Y-84953390D02*
X184236667Y-85524819D01*
X184236667Y-85524819D02*
X184855714Y-85524819D01*
X208708095Y-89394819D02*
X208708095Y-90204342D01*
X208708095Y-90204342D02*
X208755714Y-90299580D01*
X208755714Y-90299580D02*
X208803333Y-90347200D01*
X208803333Y-90347200D02*
X208898571Y-90394819D01*
X208898571Y-90394819D02*
X209089047Y-90394819D01*
X209089047Y-90394819D02*
X209184285Y-90347200D01*
X209184285Y-90347200D02*
X209231904Y-90299580D01*
X209231904Y-90299580D02*
X209279523Y-90204342D01*
X209279523Y-90204342D02*
X209279523Y-89394819D01*
X210279523Y-90394819D02*
X209708095Y-90394819D01*
X209993809Y-90394819D02*
X209993809Y-89394819D01*
X209993809Y-89394819D02*
X209898571Y-89537676D01*
X209898571Y-89537676D02*
X209803333Y-89632914D01*
X209803333Y-89632914D02*
X209708095Y-89680533D01*
X339190476Y-88254819D02*
X339190476Y-87254819D01*
X339190476Y-87254819D02*
X339523809Y-87969104D01*
X339523809Y-87969104D02*
X339857142Y-87254819D01*
X339857142Y-87254819D02*
X339857142Y-88254819D01*
X340238095Y-87254819D02*
X340857142Y-87254819D01*
X340857142Y-87254819D02*
X340523809Y-87635771D01*
X340523809Y-87635771D02*
X340666666Y-87635771D01*
X340666666Y-87635771D02*
X340761904Y-87683390D01*
X340761904Y-87683390D02*
X340809523Y-87731009D01*
X340809523Y-87731009D02*
X340857142Y-87826247D01*
X340857142Y-87826247D02*
X340857142Y-88064342D01*
X340857142Y-88064342D02*
X340809523Y-88159580D01*
X340809523Y-88159580D02*
X340761904Y-88207200D01*
X340761904Y-88207200D02*
X340666666Y-88254819D01*
X340666666Y-88254819D02*
X340380952Y-88254819D01*
X340380952Y-88254819D02*
X340285714Y-88207200D01*
X340285714Y-88207200D02*
X340238095Y-88159580D01*
X217733333Y-87892319D02*
X217400000Y-87416128D01*
X217161905Y-87892319D02*
X217161905Y-86892319D01*
X217161905Y-86892319D02*
X217542857Y-86892319D01*
X217542857Y-86892319D02*
X217638095Y-86939938D01*
X217638095Y-86939938D02*
X217685714Y-86987557D01*
X217685714Y-86987557D02*
X217733333Y-87082795D01*
X217733333Y-87082795D02*
X217733333Y-87225652D01*
X217733333Y-87225652D02*
X217685714Y-87320890D01*
X217685714Y-87320890D02*
X217638095Y-87368509D01*
X217638095Y-87368509D02*
X217542857Y-87416128D01*
X217542857Y-87416128D02*
X217161905Y-87416128D01*
X218066667Y-86892319D02*
X218733333Y-86892319D01*
X218733333Y-86892319D02*
X218304762Y-87892319D01*
X202927142Y-97439580D02*
X202879523Y-97487200D01*
X202879523Y-97487200D02*
X202736666Y-97534819D01*
X202736666Y-97534819D02*
X202641428Y-97534819D01*
X202641428Y-97534819D02*
X202498571Y-97487200D01*
X202498571Y-97487200D02*
X202403333Y-97391961D01*
X202403333Y-97391961D02*
X202355714Y-97296723D01*
X202355714Y-97296723D02*
X202308095Y-97106247D01*
X202308095Y-97106247D02*
X202308095Y-96963390D01*
X202308095Y-96963390D02*
X202355714Y-96772914D01*
X202355714Y-96772914D02*
X202403333Y-96677676D01*
X202403333Y-96677676D02*
X202498571Y-96582438D01*
X202498571Y-96582438D02*
X202641428Y-96534819D01*
X202641428Y-96534819D02*
X202736666Y-96534819D01*
X202736666Y-96534819D02*
X202879523Y-96582438D01*
X202879523Y-96582438D02*
X202927142Y-96630057D01*
X203879523Y-97534819D02*
X203308095Y-97534819D01*
X203593809Y-97534819D02*
X203593809Y-96534819D01*
X203593809Y-96534819D02*
X203498571Y-96677676D01*
X203498571Y-96677676D02*
X203403333Y-96772914D01*
X203403333Y-96772914D02*
X203308095Y-96820533D01*
X204260476Y-96630057D02*
X204308095Y-96582438D01*
X204308095Y-96582438D02*
X204403333Y-96534819D01*
X204403333Y-96534819D02*
X204641428Y-96534819D01*
X204641428Y-96534819D02*
X204736666Y-96582438D01*
X204736666Y-96582438D02*
X204784285Y-96630057D01*
X204784285Y-96630057D02*
X204831904Y-96725295D01*
X204831904Y-96725295D02*
X204831904Y-96820533D01*
X204831904Y-96820533D02*
X204784285Y-96963390D01*
X204784285Y-96963390D02*
X204212857Y-97534819D01*
X204212857Y-97534819D02*
X204831904Y-97534819D01*
X194190476Y-183254819D02*
X194190476Y-182254819D01*
X194190476Y-182254819D02*
X194523809Y-182969104D01*
X194523809Y-182969104D02*
X194857142Y-182254819D01*
X194857142Y-182254819D02*
X194857142Y-183254819D01*
X195238095Y-182254819D02*
X195857142Y-182254819D01*
X195857142Y-182254819D02*
X195523809Y-182635771D01*
X195523809Y-182635771D02*
X195666666Y-182635771D01*
X195666666Y-182635771D02*
X195761904Y-182683390D01*
X195761904Y-182683390D02*
X195809523Y-182731009D01*
X195809523Y-182731009D02*
X195857142Y-182826247D01*
X195857142Y-182826247D02*
X195857142Y-183064342D01*
X195857142Y-183064342D02*
X195809523Y-183159580D01*
X195809523Y-183159580D02*
X195761904Y-183207200D01*
X195761904Y-183207200D02*
X195666666Y-183254819D01*
X195666666Y-183254819D02*
X195380952Y-183254819D01*
X195380952Y-183254819D02*
X195285714Y-183207200D01*
X195285714Y-183207200D02*
X195238095Y-183159580D01*
X201329580Y-87506666D02*
X201377200Y-87554285D01*
X201377200Y-87554285D02*
X201424819Y-87697142D01*
X201424819Y-87697142D02*
X201424819Y-87792380D01*
X201424819Y-87792380D02*
X201377200Y-87935237D01*
X201377200Y-87935237D02*
X201281961Y-88030475D01*
X201281961Y-88030475D02*
X201186723Y-88078094D01*
X201186723Y-88078094D02*
X200996247Y-88125713D01*
X200996247Y-88125713D02*
X200853390Y-88125713D01*
X200853390Y-88125713D02*
X200662914Y-88078094D01*
X200662914Y-88078094D02*
X200567676Y-88030475D01*
X200567676Y-88030475D02*
X200472438Y-87935237D01*
X200472438Y-87935237D02*
X200424819Y-87792380D01*
X200424819Y-87792380D02*
X200424819Y-87697142D01*
X200424819Y-87697142D02*
X200472438Y-87554285D01*
X200472438Y-87554285D02*
X200520057Y-87506666D01*
X200853390Y-86935237D02*
X200805771Y-87030475D01*
X200805771Y-87030475D02*
X200758152Y-87078094D01*
X200758152Y-87078094D02*
X200662914Y-87125713D01*
X200662914Y-87125713D02*
X200615295Y-87125713D01*
X200615295Y-87125713D02*
X200520057Y-87078094D01*
X200520057Y-87078094D02*
X200472438Y-87030475D01*
X200472438Y-87030475D02*
X200424819Y-86935237D01*
X200424819Y-86935237D02*
X200424819Y-86744761D01*
X200424819Y-86744761D02*
X200472438Y-86649523D01*
X200472438Y-86649523D02*
X200520057Y-86601904D01*
X200520057Y-86601904D02*
X200615295Y-86554285D01*
X200615295Y-86554285D02*
X200662914Y-86554285D01*
X200662914Y-86554285D02*
X200758152Y-86601904D01*
X200758152Y-86601904D02*
X200805771Y-86649523D01*
X200805771Y-86649523D02*
X200853390Y-86744761D01*
X200853390Y-86744761D02*
X200853390Y-86935237D01*
X200853390Y-86935237D02*
X200901009Y-87030475D01*
X200901009Y-87030475D02*
X200948628Y-87078094D01*
X200948628Y-87078094D02*
X201043866Y-87125713D01*
X201043866Y-87125713D02*
X201234342Y-87125713D01*
X201234342Y-87125713D02*
X201329580Y-87078094D01*
X201329580Y-87078094D02*
X201377200Y-87030475D01*
X201377200Y-87030475D02*
X201424819Y-86935237D01*
X201424819Y-86935237D02*
X201424819Y-86744761D01*
X201424819Y-86744761D02*
X201377200Y-86649523D01*
X201377200Y-86649523D02*
X201329580Y-86601904D01*
X201329580Y-86601904D02*
X201234342Y-86554285D01*
X201234342Y-86554285D02*
X201043866Y-86554285D01*
X201043866Y-86554285D02*
X200948628Y-86601904D01*
X200948628Y-86601904D02*
X200901009Y-86649523D01*
X200901009Y-86649523D02*
X200853390Y-86744761D01*
X288960476Y-135727200D02*
X289103333Y-135774819D01*
X289103333Y-135774819D02*
X289341428Y-135774819D01*
X289341428Y-135774819D02*
X289436666Y-135727200D01*
X289436666Y-135727200D02*
X289484285Y-135679580D01*
X289484285Y-135679580D02*
X289531904Y-135584342D01*
X289531904Y-135584342D02*
X289531904Y-135489104D01*
X289531904Y-135489104D02*
X289484285Y-135393866D01*
X289484285Y-135393866D02*
X289436666Y-135346247D01*
X289436666Y-135346247D02*
X289341428Y-135298628D01*
X289341428Y-135298628D02*
X289150952Y-135251009D01*
X289150952Y-135251009D02*
X289055714Y-135203390D01*
X289055714Y-135203390D02*
X289008095Y-135155771D01*
X289008095Y-135155771D02*
X288960476Y-135060533D01*
X288960476Y-135060533D02*
X288960476Y-134965295D01*
X288960476Y-134965295D02*
X289008095Y-134870057D01*
X289008095Y-134870057D02*
X289055714Y-134822438D01*
X289055714Y-134822438D02*
X289150952Y-134774819D01*
X289150952Y-134774819D02*
X289389047Y-134774819D01*
X289389047Y-134774819D02*
X289531904Y-134822438D01*
X289865238Y-134774819D02*
X290103333Y-135774819D01*
X290103333Y-135774819D02*
X290293809Y-135060533D01*
X290293809Y-135060533D02*
X290484285Y-135774819D01*
X290484285Y-135774819D02*
X290722381Y-134774819D01*
X291627142Y-135774819D02*
X291055714Y-135774819D01*
X291341428Y-135774819D02*
X291341428Y-134774819D01*
X291341428Y-134774819D02*
X291246190Y-134917676D01*
X291246190Y-134917676D02*
X291150952Y-135012914D01*
X291150952Y-135012914D02*
X291055714Y-135060533D01*
X292484285Y-135108152D02*
X292484285Y-135774819D01*
X292246190Y-134727200D02*
X292008095Y-135441485D01*
X292008095Y-135441485D02*
X292627142Y-135441485D01*
X202927142Y-95999580D02*
X202879523Y-96047200D01*
X202879523Y-96047200D02*
X202736666Y-96094819D01*
X202736666Y-96094819D02*
X202641428Y-96094819D01*
X202641428Y-96094819D02*
X202498571Y-96047200D01*
X202498571Y-96047200D02*
X202403333Y-95951961D01*
X202403333Y-95951961D02*
X202355714Y-95856723D01*
X202355714Y-95856723D02*
X202308095Y-95666247D01*
X202308095Y-95666247D02*
X202308095Y-95523390D01*
X202308095Y-95523390D02*
X202355714Y-95332914D01*
X202355714Y-95332914D02*
X202403333Y-95237676D01*
X202403333Y-95237676D02*
X202498571Y-95142438D01*
X202498571Y-95142438D02*
X202641428Y-95094819D01*
X202641428Y-95094819D02*
X202736666Y-95094819D01*
X202736666Y-95094819D02*
X202879523Y-95142438D01*
X202879523Y-95142438D02*
X202927142Y-95190057D01*
X203879523Y-96094819D02*
X203308095Y-96094819D01*
X203593809Y-96094819D02*
X203593809Y-95094819D01*
X203593809Y-95094819D02*
X203498571Y-95237676D01*
X203498571Y-95237676D02*
X203403333Y-95332914D01*
X203403333Y-95332914D02*
X203308095Y-95380533D01*
X204784285Y-95094819D02*
X204308095Y-95094819D01*
X204308095Y-95094819D02*
X204260476Y-95571009D01*
X204260476Y-95571009D02*
X204308095Y-95523390D01*
X204308095Y-95523390D02*
X204403333Y-95475771D01*
X204403333Y-95475771D02*
X204641428Y-95475771D01*
X204641428Y-95475771D02*
X204736666Y-95523390D01*
X204736666Y-95523390D02*
X204784285Y-95571009D01*
X204784285Y-95571009D02*
X204831904Y-95666247D01*
X204831904Y-95666247D02*
X204831904Y-95904342D01*
X204831904Y-95904342D02*
X204784285Y-95999580D01*
X204784285Y-95999580D02*
X204736666Y-96047200D01*
X204736666Y-96047200D02*
X204641428Y-96094819D01*
X204641428Y-96094819D02*
X204403333Y-96094819D01*
X204403333Y-96094819D02*
X204308095Y-96047200D01*
X204308095Y-96047200D02*
X204260476Y-95999580D01*
D12*
%TO.C,C3*%
X198610000Y-106932164D02*
X198610000Y-107147836D01*
X199330000Y-106932164D02*
X199330000Y-107147836D01*
%TO.C,C5*%
X193762164Y-84280000D02*
X193977836Y-84280000D01*
X193762164Y-85000000D02*
X193977836Y-85000000D01*
%TO.C,R5*%
X196890000Y-104093641D02*
X196890000Y-103786359D01*
X197650000Y-104093641D02*
X197650000Y-103786359D01*
%TO.C,C11*%
X192652836Y-93642500D02*
X192437164Y-93642500D01*
X192652836Y-94362500D02*
X192437164Y-94362500D01*
%TO.C,C16*%
X203062164Y-92880000D02*
X203277836Y-92880000D01*
X203062164Y-93600000D02*
X203277836Y-93600000D01*
%TO.C,SW19*%
X175770000Y-109740000D02*
X175770000Y-103740000D01*
X180320000Y-103640000D02*
X177720000Y-103640000D01*
X180320000Y-109840000D02*
X177720000Y-109840000D01*
X181320000Y-101640000D02*
X182320000Y-101640000D01*
X182270000Y-109640000D02*
X182270000Y-103840000D01*
X182320000Y-101640000D02*
X182320000Y-102640000D01*
%TO.C,C2*%
X195682164Y-103980000D02*
X195897836Y-103980000D01*
X195682164Y-104700000D02*
X195897836Y-104700000D01*
%TO.C,U2*%
X187445000Y-85410000D02*
X187445000Y-85670000D01*
X187445000Y-90860000D02*
X187445000Y-90600000D01*
X190170000Y-85410000D02*
X187445000Y-85410000D01*
X190170000Y-85410000D02*
X192895000Y-85410000D01*
X190170000Y-90860000D02*
X187445000Y-90860000D01*
X190170000Y-90860000D02*
X192895000Y-90860000D01*
X192895000Y-85410000D02*
X192895000Y-85670000D01*
X192895000Y-90860000D02*
X192895000Y-90600000D01*
X186662500Y-85670000D02*
X186422500Y-85340000D01*
X186902500Y-85340000D01*
X186662500Y-85670000D01*
G36*
X186662500Y-85670000D02*
G01*
X186422500Y-85340000D01*
X186902500Y-85340000D01*
X186662500Y-85670000D01*
G37*
%TO.C,C4*%
X206510000Y-92947836D02*
X206510000Y-92732164D01*
X207230000Y-92947836D02*
X207230000Y-92732164D01*
%TO.C,U3*%
X194260000Y-100887500D02*
X194260000Y-100237500D01*
X194910000Y-93667500D02*
X194260000Y-93667500D01*
X194910000Y-100887500D02*
X194260000Y-100887500D01*
X200830000Y-93667500D02*
X201480000Y-93667500D01*
X200830000Y-100887500D02*
X201480000Y-100887500D01*
X201480000Y-93667500D02*
X201480000Y-94317500D01*
X201480000Y-100887500D02*
X201480000Y-100237500D01*
%TO.C,R6*%
X212443641Y-86257500D02*
X212136359Y-86257500D01*
X212443641Y-87017500D02*
X212136359Y-87017500D01*
%TO.C,C10*%
X201710000Y-91627836D02*
X201710000Y-91412164D01*
X202430000Y-91627836D02*
X202430000Y-91412164D01*
%TO.C,C9*%
X197310000Y-90647836D02*
X197310000Y-90432164D01*
X198030000Y-90647836D02*
X198030000Y-90432164D01*
%TO.C,SW20*%
X182920000Y-111840000D02*
X182920000Y-110840000D01*
X182970000Y-103840000D02*
X182970000Y-109640000D01*
X183920000Y-111840000D02*
X182920000Y-111840000D01*
X184920000Y-103640000D02*
X187520000Y-103640000D01*
X184920000Y-109840000D02*
X187520000Y-109840000D01*
X189470000Y-103740000D02*
X189470000Y-109740000D01*
%TO.C,R4*%
X199490000Y-90386359D02*
X199490000Y-90693641D01*
X200250000Y-90386359D02*
X200250000Y-90693641D01*
%TO.C,C6*%
X196210000Y-90047836D02*
X196210000Y-89832164D01*
X196930000Y-90047836D02*
X196930000Y-89832164D01*
%TO.C,Y1*%
X194920000Y-105040000D02*
X194920000Y-109040000D01*
X198220000Y-105040000D02*
X194920000Y-105040000D01*
%TO.C,C13*%
X192652836Y-97942500D02*
X192437164Y-97942500D01*
X192652836Y-98662500D02*
X192437164Y-98662500D01*
%TO.C,R1*%
X187165000Y-93448859D02*
X187165000Y-93756141D01*
X187925000Y-93448859D02*
X187925000Y-93756141D01*
%TO.C,R3*%
X198390000Y-90386359D02*
X198390000Y-90693641D01*
X199150000Y-90386359D02*
X199150000Y-90693641D01*
%TO.C,C1*%
X211710000Y-92947836D02*
X211710000Y-92732164D01*
X212430000Y-92947836D02*
X212430000Y-92732164D01*
%TO.C,C7*%
X199110000Y-103032164D02*
X199110000Y-103247836D01*
X199830000Y-103032164D02*
X199830000Y-103247836D01*
%TO.C,C14*%
X198010000Y-103032164D02*
X198010000Y-103247836D01*
X198730000Y-103032164D02*
X198730000Y-103247836D01*
%TO.C,R2*%
X183916359Y-85860000D02*
X184223641Y-85860000D01*
X183916359Y-86620000D02*
X184223641Y-86620000D01*
%TO.C,U1*%
X209470000Y-90780000D02*
X208670000Y-90780000D01*
X209470000Y-90780000D02*
X210270000Y-90780000D01*
X209470000Y-93900000D02*
X208670000Y-93900000D01*
X209470000Y-93900000D02*
X210270000Y-93900000D01*
X211010000Y-94180000D02*
X210530000Y-94180000D01*
X210770000Y-93850000D01*
X211010000Y-94180000D01*
G36*
X211010000Y-94180000D02*
G01*
X210530000Y-94180000D01*
X210770000Y-93850000D01*
X211010000Y-94180000D01*
G37*
%TO.C,R7*%
X216020000Y-86883859D02*
X216020000Y-87191141D01*
X216780000Y-86883859D02*
X216780000Y-87191141D01*
%TO.C,C12*%
X203062164Y-97880000D02*
X203277836Y-97880000D01*
X203062164Y-98600000D02*
X203277836Y-98600000D01*
%TO.C,C8*%
X200610000Y-90647836D02*
X200610000Y-90432164D01*
X201330000Y-90647836D02*
X201330000Y-90432164D01*
%TO.C,C15*%
X203062164Y-93980000D02*
X203277836Y-93980000D01*
X203062164Y-94700000D02*
X203277836Y-94700000D01*
%TD*%
M02*
