M48
; DRILL file {KiCad 8.0.8} date 2025-07-12T18:44:11-0500
; FORMAT={-:-/ absolute / inch / decimal}
; #@! TF.CreationDate,2025-07-12T18:44:11-05:00
; #@! TF.GenerationSoftware,Kicad,Pcbnew,8.0.8
; #@! TF.FileFunction,NonPlated,1,2,NPTH
FMAT,2
INCH
; #@! TA.AperFunction,NonPlated,NPTH,ComponentDrill
T1C0.0256
; #@! TA.AperFunction,NonPlated,NPTH,ComponentDrill
T2C0.0413
; #@! TA.AperFunction,NonPlated,NPTH,ComponentDrill
T3C0.0472
; #@! TA.AperFunction,NonPlated,NPTH,ComponentDrill
T4C0.1260
%
G90
G05
T1
X8.3508Y-3.281
X8.5783Y-3.281
T2
X4.0417Y-4.2543
X5.1406Y-4.3059
X6.0744Y-4.8921
X6.4646Y-7.0094
X8.2362Y-4.3386
X8.2362Y-5.4409
X8.2362Y-6.5433
X10.0079Y-7.0094
X10.2268Y-4.4638
X10.2449Y-5.5665
X11.1807Y-3.9232
X11.2193Y-5.0244
X12.2744Y-3.8705
X12.3201Y-4.972
X13.2559Y-4.3764
X13.326Y-5.4764
T3
X4.4984Y-4.0787
X4.4984Y-4.3354
X5.5972Y-4.1303
X5.5972Y-4.387
X6.5311Y-4.7165
X6.5311Y-4.9732
X6.9213Y-6.8339
X6.9213Y-7.0906
X8.6929Y-4.163
X8.6929Y-4.4197
X8.6929Y-5.2654
X8.6929Y-5.522
X8.6929Y-6.3677
X8.6929Y-6.6244
X10.4646Y-6.8339
X10.4646Y-7.0906
X10.6835Y-4.2882
X10.6835Y-4.5449
X10.7016Y-5.3909
X10.7016Y-5.6476
X11.6374Y-3.7476
X11.6374Y-4.0043
X11.676Y-4.8488
X11.676Y-5.1055
X12.7311Y-3.6949
X12.7311Y-3.9516
X12.7768Y-4.7965
X12.7768Y-5.0531
X13.7126Y-4.2008
X13.7126Y-4.4575
X13.7827Y-5.3008
X13.7827Y-5.5575
T4
X3.5433Y-3.622
X3.5433Y-7.1654
X6.8898Y-3.4252
X7.6772Y-7.3622
X9.252Y-7.3622
X10.0394Y-3.4252
X13.3858Y-3.622
X13.3858Y-7.1654
M30
