%TF.GenerationSoftware,KiCad,Pcbnew,8.0.8*%
%TF.CreationDate,2025-07-12T18:43:26-05:00*%
%TF.ProjectId,nanosplit,6e616e6f-7370-46c6-9974-2e6b69636164,rev?*%
%TF.SameCoordinates,Original*%
%TF.FileFunction,Soldermask,Bot*%
%TF.FilePolarity,Negative*%
%FSLAX46Y46*%
G04 Gerber Fmt 4.6, Leading zero omitted, Abs format (unit mm)*
G04 Created by KiCad (PCBNEW 8.0.8) date 2025-07-12 18:43:26*
%MOMM*%
%LPD*%
G01*
G04 APERTURE LIST*
G04 Aperture macros list*
%AMRoundRect*
0 Rectangle with rounded corners*
0 $1 Rounding radius*
0 $2 $3 $4 $5 $6 $7 $8 $9 X,Y pos of 4 corners*
0 Add a 4 corners polygon primitive as box body*
4,1,4,$2,$3,$4,$5,$6,$7,$8,$9,$2,$3,0*
0 Add four circle primitives for the rounded corners*
1,1,$1+$1,$2,$3*
1,1,$1+$1,$4,$5*
1,1,$1+$1,$6,$7*
1,1,$1+$1,$8,$9*
0 Add four rect primitives between the rounded corners*
20,1,$1+$1,$2,$3,$4,$5,0*
20,1,$1+$1,$4,$5,$6,$7,0*
20,1,$1+$1,$6,$7,$8,$9,0*
20,1,$1+$1,$8,$9,$2,$3,0*%
G04 Aperture macros list end*
%ADD10C,1.050000*%
%ADD11C,1.200000*%
%ADD12RoundRect,0.500000X-0.000010X-0.500000X0.000010X-0.500000X0.000010X0.500000X-0.000010X0.500000X0*%
%ADD13R,1.600000X3.800000*%
%ADD14R,1.600000X3.000000*%
%ADD15R,1.600000X1.800000*%
%ADD16R,1.600000X2.600000*%
%ADD17C,3.200000*%
%ADD18C,0.650000*%
%ADD19O,1.000000X2.100000*%
%ADD20O,1.000000X1.600000*%
G04 APERTURE END LIST*
D10*
%TO.C,SW7*%
X209200000Y-138200000D03*
D11*
X220800000Y-133740000D03*
X220800000Y-140260000D03*
D12*
X214400000Y-139300000D03*
X216800000Y-139300000D03*
D13*
X208800000Y-132900000D03*
D14*
X208800000Y-141500000D03*
D15*
X221200000Y-131925000D03*
D16*
X221200000Y-137000000D03*
D15*
X221200000Y-142075000D03*
%TD*%
D17*
%TO.C,M3*%
X235000000Y-187000000D03*
%TD*%
D10*
%TO.C,SW10*%
X283990000Y-99650000D03*
D11*
X295590000Y-95190000D03*
X295590000Y-101710000D03*
D12*
X289190000Y-100750000D03*
X291590000Y-100750000D03*
D13*
X283590000Y-94350000D03*
D14*
X283590000Y-102950000D03*
D15*
X295990000Y-93375000D03*
D16*
X295990000Y-98450000D03*
D15*
X295990000Y-103525000D03*
%TD*%
D10*
%TO.C,SW13*%
X260220000Y-141390000D03*
D11*
X271820000Y-136930000D03*
X271820000Y-143450000D03*
D12*
X265420000Y-142490000D03*
X267820000Y-142490000D03*
D13*
X259820000Y-136090000D03*
D14*
X259820000Y-144690000D03*
D15*
X272220000Y-135115000D03*
D16*
X272220000Y-140190000D03*
D15*
X272220000Y-145265000D03*
%TD*%
D10*
%TO.C,SW2*%
X130570000Y-109370000D03*
D11*
X142170000Y-104910000D03*
X142170000Y-111430000D03*
D12*
X135770000Y-110470000D03*
X138170000Y-110470000D03*
D13*
X130170000Y-104070000D03*
D14*
X130170000Y-112670000D03*
D15*
X142570000Y-103095000D03*
D16*
X142570000Y-108170000D03*
D15*
X142570000Y-113245000D03*
%TD*%
D10*
%TO.C,SW15*%
X312930000Y-126290000D03*
D11*
X324530000Y-121830000D03*
X324530000Y-128350000D03*
D12*
X318130000Y-127390000D03*
X320530000Y-127390000D03*
D13*
X312530000Y-120990000D03*
D14*
X312530000Y-129590000D03*
D15*
X324930000Y-120015000D03*
D16*
X324930000Y-125090000D03*
D15*
X324930000Y-130165000D03*
%TD*%
D17*
%TO.C,M3*%
X175000000Y-87000000D03*
%TD*%
D10*
%TO.C,SW11*%
X311770000Y-98310000D03*
D11*
X323370000Y-93850000D03*
X323370000Y-100370000D03*
D12*
X316970000Y-99410000D03*
X319370000Y-99410000D03*
D13*
X311370000Y-93010000D03*
D14*
X311370000Y-101610000D03*
D15*
X323770000Y-92035000D03*
D16*
X323770000Y-97110000D03*
D15*
X323770000Y-102185000D03*
%TD*%
D10*
%TO.C,SW9*%
X259760000Y-113380000D03*
D11*
X271360000Y-108920000D03*
X271360000Y-115440000D03*
D12*
X264960000Y-114480000D03*
X267360000Y-114480000D03*
D13*
X259360000Y-108080000D03*
D14*
X259360000Y-116680000D03*
D15*
X271760000Y-107105000D03*
D16*
X271760000Y-112180000D03*
D15*
X271760000Y-117255000D03*
%TD*%
D17*
%TO.C,M3*%
X90000000Y-182000000D03*
%TD*%
%TO.C,M3*%
X340000000Y-182000000D03*
%TD*%
D10*
%TO.C,SW3*%
X154290000Y-124260000D03*
D11*
X165890000Y-119800000D03*
X165890000Y-126320000D03*
D12*
X159490000Y-125360000D03*
X161890000Y-125360000D03*
D13*
X153890000Y-118960000D03*
D14*
X153890000Y-127560000D03*
D15*
X166290000Y-117985000D03*
D16*
X166290000Y-123060000D03*
D15*
X166290000Y-128135000D03*
%TD*%
D10*
%TO.C,SW4*%
X164200000Y-178040000D03*
D11*
X175800000Y-173580000D03*
X175800000Y-180100000D03*
D12*
X169400000Y-179140000D03*
X171800000Y-179140000D03*
D13*
X163800000Y-172740000D03*
D14*
X163800000Y-181340000D03*
D15*
X176200000Y-171765000D03*
D16*
X176200000Y-176840000D03*
D15*
X176200000Y-181915000D03*
%TD*%
D17*
%TO.C,M3*%
X255000000Y-87000000D03*
%TD*%
D18*
%TO.C,USB1*%
X217890000Y-83337500D03*
X212110000Y-83337500D03*
D19*
X219320000Y-83867500D03*
D20*
X219320000Y-79687500D03*
D19*
X210680000Y-83867500D03*
D20*
X210680000Y-79687500D03*
%TD*%
D10*
%TO.C,SW16*%
X338480000Y-139100000D03*
D11*
X350080000Y-134640000D03*
X350080000Y-141160000D03*
D12*
X343680000Y-140200000D03*
X346080000Y-140200000D03*
D13*
X338080000Y-133800000D03*
D14*
X338080000Y-142400000D03*
D15*
X350480000Y-132825000D03*
D16*
X350480000Y-137900000D03*
D15*
X350480000Y-142975000D03*
%TD*%
D10*
%TO.C,SW6*%
X209200000Y-110200000D03*
D11*
X220800000Y-105740000D03*
X220800000Y-112260000D03*
D12*
X214400000Y-111300000D03*
X216800000Y-111300000D03*
D13*
X208800000Y-104900000D03*
D14*
X208800000Y-113500000D03*
D15*
X221200000Y-103925000D03*
D16*
X221200000Y-109000000D03*
D15*
X221200000Y-114075000D03*
%TD*%
D10*
%TO.C,SW8*%
X209200000Y-166200000D03*
D11*
X220800000Y-161740000D03*
X220800000Y-168260000D03*
D12*
X214400000Y-167300000D03*
X216800000Y-167300000D03*
D13*
X208800000Y-160900000D03*
D14*
X208800000Y-169500000D03*
D15*
X221200000Y-159925000D03*
D16*
X221200000Y-165000000D03*
D15*
X221200000Y-170075000D03*
%TD*%
D10*
%TO.C,SW5*%
X254200000Y-178040000D03*
D11*
X265800000Y-173580000D03*
X265800000Y-180100000D03*
D12*
X259400000Y-179140000D03*
X261800000Y-179140000D03*
D13*
X253800000Y-172740000D03*
D14*
X253800000Y-181340000D03*
D15*
X266200000Y-171765000D03*
D16*
X266200000Y-176840000D03*
D15*
X266200000Y-181915000D03*
%TD*%
D10*
%TO.C,SW1*%
X102660000Y-108060000D03*
D11*
X114260000Y-103600000D03*
X114260000Y-110120000D03*
D12*
X107860000Y-109160000D03*
X110260000Y-109160000D03*
D13*
X102260000Y-102760000D03*
D14*
X102260000Y-111360000D03*
D15*
X114660000Y-101785000D03*
D16*
X114660000Y-106860000D03*
D15*
X114660000Y-111935000D03*
%TD*%
D17*
%TO.C,M3*%
X90000000Y-92000000D03*
%TD*%
D10*
%TO.C,SW12*%
X336700000Y-111160000D03*
D11*
X348300000Y-106700000D03*
X348300000Y-113220000D03*
D12*
X341900000Y-112260000D03*
X344300000Y-112260000D03*
D13*
X336300000Y-105860000D03*
D14*
X336300000Y-114460000D03*
D15*
X348700000Y-104885000D03*
D16*
X348700000Y-109960000D03*
D15*
X348700000Y-115035000D03*
%TD*%
D17*
%TO.C,M3*%
X340000000Y-92000000D03*
%TD*%
%TO.C,M3*%
X195000000Y-187000000D03*
%TD*%
D10*
%TO.C,SW14*%
X284970000Y-127620000D03*
D11*
X296570000Y-123160000D03*
X296570000Y-129680000D03*
D12*
X290170000Y-128720000D03*
X292570000Y-128720000D03*
D13*
X284570000Y-122320000D03*
D14*
X284570000Y-130920000D03*
D15*
X296970000Y-121345000D03*
D16*
X296970000Y-126420000D03*
D15*
X296970000Y-131495000D03*
%TD*%
M02*
