0
SECTION
2
HEADER
9
$INSUNITS
70
4
9
$ACADVER
1
AC1014
9
$HANDSEED
5
FFFF
0
ENDSEC
0
SECTION
2
TABLES
0
TABLE
2
VPORT
5
8
100
AcDbSymbolTable
0
ENDTAB
0
TABLE
2
LTYPE
5
5
100
AcDbSymbolTable
0
LTYPE
5
14
100
AcDbSymbolTableRecord
100
AcDbLinetypeTableRecord
2
BYBLOCK
70
0
0
LTYPE
5
15
100
AcDbSymbolTableRecord
100
AcDbLinetypeTableRecord
2
BYLAYER
70
0
0
LTYPE
5
16
100
AcDbSymbolTableRecord
100
AcDbLinetypeTableRecord
2
DASHED
70
0
3
Dashed __ __ __ __ __ __ __ __ __ __ __ __ __ _
72
65
73
2
40
0.75
49
0.5
74
0
49
-0.25
74
0
0
ENDTAB
0
TABLE
2
LAYER
5
2
100
AcDbSymbolTable
70
2
0
LAYER
5
50
100
AcDbSymbolTableRecord
100
AcDbLayerTableRecord
2
0
70
0
62
7
6
CONTINUOUS
0
ENDTAB
0
TABLE
2
STYLE
5
3
100
AcDbSymbolTable
70
1
0
STYLE
5
11
100
AcDbSymbolTableRecord
100
AcDbTextStyleTableRecord
2
STANDARD
70
0
0
ENDTAB
0
TABLE
2
VIEW
5
6
100
AcDbSymbolTable
70
0
0
ENDTAB
0
TABLE
2
UCS
5
7
100
AcDbSymbolTable
70
0
0
ENDTAB
0
TABLE
2
APPID
5
9
100
AcDbSymbolTable
70
2
0
APPID
5
12
100
AcDbSymbolTableRecord
100
AcDbRegAppTableRecord
2
ACAD
70
0
0
ENDTAB
0
TABLE
2
DIMSTYLE
5
A
100
AcDbSymbolTable
70
1
0
ENDTAB
0
TABLE
2
BLOCK_RECORD
5
1
100
AcDbSymbolTable
70
1
0
BLOCK_RECORD
5
1F
100
AcDbSymbolTableRecord
100
AcDbBlockTableRecord
2
*MODEL_SPACE
0
BLOCK_RECORD
5
1B
100
AcDbSymbolTableRecord
100
AcDbBlockTableRecord
2
*PAPER_SPACE
0
ENDTAB
0
ENDSEC
0
SECTION
2
BLOCKS
0
BLOCK
5
20
100
AcDbEntity
100
AcDbBlockBegin
2
*MODEL_SPACE
0
ENDBLK
5
21
100
AcDbEntity
100
AcDbBlockEnd
0
BLOCK
5
1C
100
AcDbEntity
100
AcDbBlockBegin
2
*PAPER_SPACE
0
ENDBLK
5
1D
100
AcDbEntity
100
AcDbBlockEnd
0
ENDSEC
0
SECTION
2
ENTITIES
0
POINT
5
100
100
AcDbEntity
8
0
100
AcDbPoint
10
25
20
105.00214970215578
30
0
0
POINT
5
101
100
AcDbEntity
8
0
100
AcDbPoint
10
0
20
0
30
0
0
POINT
5
102
100
AcDbEntity
8
0
100
AcDbPoint
10
275
20
105.00214970215578
30
0
0
POINT
5
103
100
AcDbEntity
8
0
100
AcDbPoint
10
24.999949702155781
20
15.002200000000006
30
0
0
POINT
5
104
100
AcDbEntity
8
0
100
AcDbPoint
10
144.5
20
120.00219999999999
30
0
0
POINT
5
105
100
AcDbEntity
8
0
100
AcDbPoint
10
155.00000000000003
20
120.00219999999999
30
0
0
POINT
5
106
100
AcDbEntity
8
0
100
AcDbPoint
10
190
20
110.00214970215578
30
0
0
POINT
5
107
100
AcDbEntity
8
0
100
AcDbPoint
10
170
20
10.002149702155778
30
0
0
POINT
5
108
100
AcDbEntity
8
0
100
AcDbPoint
10
130
20
10.002149702155778
30
0
0
POINT
5
109
100
AcDbEntity
8
0
100
AcDbPoint
10
0
20
0
30
0
0
POINT
5
110
100
AcDbEntity
8
0
100
AcDbPoint
10
110
20
110.00214970215578
30
0
0
POINT
5
111
100
AcDbEntity
8
0
100
AcDbPoint
10
275
20
15.002149702155778
30
0
0
POINT
5
112
100
AcDbEntity
8
0
100
AcDbPoint
10
25
20
105.00214970215578
30
0
0
POINT
5
113
100
AcDbEntity
8
0
100
AcDbPoint
10
275
20
105.00214970215578
30
0
0
POINT
5
114
100
AcDbEntity
8
0
100
AcDbPoint
10
275
20
15.002149702155778
30
0
0
POINT
5
115
100
AcDbEntity
8
0
100
AcDbPoint
10
24.999949702155781
20
15.002200000000006
30
0
0
LINE
5
116
100
AcDbEntity
8
0
100
AcDbLine
10
42.000000000000014
20
0.0022000000000055309
30
0
11
258.00000000000006
21
0.0022000000000055309
31
0
0
CIRCLE
5
117
100
AcDbEntity
8
0
100
AcDbCircle
10
130
20
10.002149702155778
30
0
40
1.6000000000000059
210
0
220
0
230
1
0
CIRCLE
5
118
100
AcDbEntity
8
0
100
AcDbCircle
10
170
20
10.002149702155778
30
0
40
1.599999999999997
210
0
220
0
230
1
0
LINE
5
119
100
AcDbEntity
8
0
100
AcDbLine
10
156
20
120.00219999999999
30
0
11
258.00000000000011
21
120.00219999999999
31
0
0
LINE
5
120
100
AcDbEntity
8
0
100
AcDbLine
10
41.999999999999993
20
120.00219999999999
30
0
11
143.5
21
120.00219999999999
31
0
0
CIRCLE
5
121
100
AcDbEntity
8
0
100
AcDbCircle
10
190
20
110.00214970215578
30
0
40
1.599999999999987
210
0
220
0
230
1
0
LINE
5
122
100
AcDbEntity
8
0
100
AcDbLine
10
143.5
20
120.00219999999999
30
0
11
144.5
21
120.00219999999999
31
0
0
CIRCLE
5
123
100
AcDbEntity
8
0
100
AcDbCircle
10
275
20
105.00214970215578
30
0
40
1.600000000000021
210
0
220
0
230
1
0
CIRCLE
5
124
100
AcDbEntity
8
0
100
AcDbCircle
10
25
20
105.00214970215578
30
0
40
1.599999999999997
210
0
220
0
230
1
0
CIRCLE
5
125
100
AcDbEntity
8
0
100
AcDbCircle
10
110
20
110.00214970215578
30
0
40
1.6000000000000107
210
0
220
0
230
1
0
ARC
5
126
100
AcDbEntity
8
0
100
AcDbCircle
10
258.00000000000023
20
42.002199999999746
30
0
40
41.999999999999744
210
0
220
0
230
1
100
AcDbArc
50
-90.000000000000142
51
0
0
LWPOLYLINE
5
127
100
AcDbEntity
8
0
100
AcDbPolyline
90
58
70
1
43
0.0
10
273.15285896875616
20
113.93812721877356
42
0.10009250870628074
10
258.00000000000011
20
117.00219999999999
10
195.99999999999997
20
117.00219999999999
42
0.41421356237309503
10
194
20
115.00219999999999
10
194
20
110.00214970215578
42
-0.99999999999999989
10
186
20
110.00214970215578
10
186
20
115.00219999999999
42
0.41421356237309503
10
184.00000000000003
20
117.00219999999999
10
159.00000000000003
20
117.00219999999999
10
140.50000000000003
20
117.00219999999999
10
116
20
117.00219999999999
42
0.41421356237309503
10
114
20
115.00219999999999
10
114
20
110.00214970215578
42
-0.99999999999999989
10
106
20
110.00214970215578
10
106
20
115.00219999999999
42
0.41421356237309764
10
103.99999999999999
20
117.00219999999999
10
41.999999999999993
20
117.00219999999999
42
0.10009250870628116
10
26.847141031243794
20
113.93812721877347
42
0.46276619947963971
10
25.931745936838524
20
111.02963119532149
10
28.384929570221431
20
107.13340562405735
42
-0.99999999999999989
10
21.615070429778569
20
102.87089378025419
10
19.161886796395667
20
106.76711935151832
42
0.46276619947963399
10
16.143444822705746
20
107.19875038465226
42
0.21470913022054008
10
2.9999999999999982
20
78.002199999999988
10
2.9999999999999982
20
42.002200000000002
42
0.21470900100557128
10
16.14343039719925
20
12.805662390627182
42
0.46276619947964054
10
19.16187258415021
20
13.237291932401185
10
21.615021229864283
20
17.133457665668413
42
-0.99999998946328783
10
28.384878219360175
20
12.870942405663634
10
25.931729618559004
20
8.9747767437284534
42
0.46276619947963904
10
26.847123275926677
20
6.0662802679959471
42
0.1000926334644438
10
41.999999999999972
20
3.0022000000000126
10
124
20
3.002200000000006
42
0.41421356237309664
10
126
20
5.00220000000001
10
126
20
10.002149702155778
42
-0.99999999999999989
10
134
20
10.002149702155778
10
134
20
5.00220000000001
42
0.41421356237309664
10
136
20
3.002200000000006
10
164.00000000000003
20
3.0022000000000091
42
0.41421356237309553
10
166
20
5.0022000000000055
10
166
20
10.002149702155778
42
-0.99999999999999989
10
174
20
10.002149702155778
10
174
20
5.0022000000000055
42
0.41421356237309553
10
175.99999999999997
20
3.0022000000000091
10
258.00000000000006
20
3.0022000000000038
42
0.10009208452662709
10
273.15279860037657
20
6.0662473261605072
42
0.46276619947963832
10
274.06819858073015
20
8.9747418118465205
10
271.61506684951058
20
12.870899466562172
42
-0.99999999999999989
10
278.38493315048942
20
17.133399937749385
10
280.83806488170899
20
13.237242283033714
42
0.46276619947962738
10
283.85650613030248
20
12.805606179253779
42
0.21470956955348042
10
297
20
42.00220000000003
10
297
20
78.002199999999988
42
0.21470913022054175
10
283.85655517729435
20
107.19875038465239
42
0.4627661994796205
10
280.83811320360434
20
106.7671193515184
10
278.38492952530856
20
102.87089370892215
42
-0.99999998946328783
10
271.61507042977854
20
107.13340562405733
10
274.06825406316148
20
111.02963119532156
42
0.46276619947962105
0
ARC
5
128
100
AcDbEntity
8
0
100
AcDbCircle
10
41.999999999999943
20
42.002199999999952
30
0
40
41.999999999999943
210
0
220
0
230
1
100
AcDbArc
50
180
51
270.00000000000006
0
CIRCLE
5
129
100
AcDbEntity
8
0
100
AcDbCircle
10
24.999949702155781
20
15.002200000000006
30
0
40
1.600000000000007
210
0
220
0
230
1
0
ARC
5
130
100
AcDbEntity
8
0
100
AcDbCircle
10
41.999999999999957
20
78.00220000000003
30
0
40
41.999999999999957
210
0
220
-0
230
1
100
AcDbArc
50
89.999999999999943
51
180
0
CIRCLE
5
131
100
AcDbEntity
8
0
100
AcDbCircle
10
275
20
15.002149702155778
30
0
40
1.5999999999999903
210
0
220
0
230
1
0
ARC
5
132
100
AcDbEntity
8
0
100
AcDbCircle
10
258.00000000000023
20
78.002200000000244
30
0
40
41.999999999999744
210
-0
220
0
230
1
100
AcDbArc
50
0
51
90.000000000000142
0
LINE
5
133
100
AcDbEntity
8
0
100
AcDbLine
10
300
20
42.002200000000002
30
0
11
300
21
78.002199999999988
31
0
0
LINE
5
134
100
AcDbEntity
8
0
100
AcDbLine
10
155.00000000000003
20
120.00219999999999
30
0
11
156
21
120.00219999999999
31
0
0
LINE
5
135
100
AcDbEntity
8
0
100
AcDbLine
10
144.5
20
120.00219999999999
30
0
11
155.00000000000003
21
120.00219999999999
31
0
0
LINE
5
136
100
AcDbEntity
8
0
100
AcDbLine
10
0
20
78.002199999999988
30
0
11
0
21
42.002200000000002
31
0
0
ENDSEC
0
SECTION
2
OBJECTS
0
DICTIONARY
5
C
100
AcDbDictionary
3
ACAD_GROUP
350
D
3
ACAD_MLINESTYLE
350
17
0
DICTIONARY
5
D
100
AcDbDictionary
0
DICTIONARY
5
1A
330
C
100
AcDbDictionary
0
DICTIONARY
5
17
100
AcDbDictionary
0
ENDSEC
0
EOF
